<svg xmlns="http://www.w3.org/2000/svg" xmlns:xlink="http://www.w3.org/1999/xlink" width="1366" zoomAndPan="magnify" viewBox="0 0 1024.5 576" height="768" preserveAspectRatio="xMidYMid meet" version="1.0"><defs><g/><clipPath id="20dd79702f"><path d="M 73.632812 0.140625 L 925.484375 0.140625 L 925.484375 187 L 73.632812 187 Z M 73.632812 0.140625 " clip-rule="nonzero"/></clipPath><clipPath id="a50de455b3"><path d="M 499.492188 0.140625 L 925.347656 186.460938 L 73.632812 186.460938 L 499.492188 0.140625 " clip-rule="nonzero"/></clipPath><clipPath id="a2f9cfc9f2"><path d="M 105.644531 186.460938 L 182.445312 186.460938 L 182.445312 483.210938 L 105.644531 483.210938 Z M 105.644531 186.460938 " clip-rule="nonzero"/></clipPath><clipPath id="b819f57e18"><path d="M 220.9375 186.460938 L 297.738281 186.460938 L 297.738281 483.210938 L 220.9375 483.210938 Z M 220.9375 186.460938 " clip-rule="nonzero"/></clipPath><clipPath id="6867df636c"><path d="M 346.101562 186.460938 L 422.902344 186.460938 L 422.902344 483.210938 L 346.101562 483.210938 Z M 346.101562 186.460938 " clip-rule="nonzero"/></clipPath><clipPath id="c7daaf1879"><path d="M 461.394531 186.460938 L 538.195312 186.460938 L 538.195312 483.210938 L 461.394531 483.210938 Z M 461.394531 186.460938 " clip-rule="nonzero"/></clipPath><clipPath id="8b0f1c3cb4"><path d="M 583.945312 186.460938 L 660.742188 186.460938 L 660.742188 483.210938 L 583.945312 483.210938 Z M 583.945312 186.460938 " clip-rule="nonzero"/></clipPath><clipPath id="0518def450"><path d="M 701.484375 186.460938 L 778.285156 186.460938 L 778.285156 483.210938 L 701.484375 483.210938 Z M 701.484375 186.460938 " clip-rule="nonzero"/></clipPath><clipPath id="d4fee55621"><path d="M 826.648438 186.460938 L 903.449219 186.460938 L 903.449219 483.210938 L 826.648438 483.210938 Z M 826.648438 186.460938 " clip-rule="nonzero"/></clipPath><clipPath id="dd1bdb119e"><path d="M 73.632812 483.960938 L 925.347656 483.960938 L 925.347656 546.175781 L 73.632812 546.175781 Z M 73.632812 483.960938 " clip-rule="nonzero"/></clipPath></defs><g clip-path="url(#20dd79702f)"><g clip-path="url(#a50de455b3)"><path fill="#ec994b" d="M 73.632812 0.140625 L 925.484375 0.140625 L 925.484375 186.441406 L 73.632812 186.441406 Z M 73.632812 0.140625 " fill-opacity="1" fill-rule="nonzero"/></g></g><g clip-path="url(#a2f9cfc9f2)"><path fill="#ffffff" d="M 105.644531 186.460938 L 182.597656 186.460938 L 182.597656 483.460938 L 105.644531 483.460938 Z M 105.644531 186.460938 " fill-opacity="1" fill-rule="nonzero"/></g><g clip-path="url(#b819f57e18)"><path fill="#ffffff" d="M 220.9375 186.460938 L 297.886719 186.460938 L 297.886719 483.460938 L 220.9375 483.460938 Z M 220.9375 186.460938 " fill-opacity="1" fill-rule="nonzero"/></g><g clip-path="url(#6867df636c)"><path fill="#ffffff" d="M 346.101562 186.460938 L 423.050781 186.460938 L 423.050781 483.460938 L 346.101562 483.460938 Z M 346.101562 186.460938 " fill-opacity="1" fill-rule="nonzero"/></g><g clip-path="url(#c7daaf1879)"><path fill="#ffffff" d="M 461.394531 186.460938 L 538.34375 186.460938 L 538.34375 483.460938 L 461.394531 483.460938 Z M 461.394531 186.460938 " fill-opacity="1" fill-rule="nonzero"/></g><g clip-path="url(#8b0f1c3cb4)"><path fill="#ffffff" d="M 583.945312 186.460938 L 660.894531 186.460938 L 660.894531 483.460938 L 583.945312 483.460938 Z M 583.945312 186.460938 " fill-opacity="1" fill-rule="nonzero"/></g><g clip-path="url(#0518def450)"><path fill="#ffffff" d="M 701.484375 186.460938 L 778.433594 186.460938 L 778.433594 483.460938 L 701.484375 483.460938 Z M 701.484375 186.460938 " fill-opacity="1" fill-rule="nonzero"/></g><g clip-path="url(#d4fee55621)"><path fill="#ffffff" d="M 826.648438 186.460938 L 903.601562 186.460938 L 903.601562 483.460938 L 826.648438 483.460938 Z M 826.648438 186.460938 " fill-opacity="1" fill-rule="nonzero"/></g><g clip-path="url(#dd1bdb119e)"><path fill="#ec994b" d="M 73.632812 483.960938 L 925.484375 483.960938 L 925.484375 546.058594 L 73.632812 546.058594 Z M 73.632812 483.960938 " fill-opacity="1" fill-rule="nonzero"/></g><g fill="#000000" fill-opacity="1"><g transform="translate(227.050572, 164.741069)"><g><path d="M 1.578125 0 L 1.578125 -5.546875 L 4.796875 -5.546875 L 4.71875 -23.46875 L 1.578125 -23.46875 L 1.578125 -29.015625 L 14.96875 -29.015625 L 14.96875 -23.46875 L 11.765625 -23.46875 L 11.6875 -5.546875 L 14.96875 -5.546875 L 14.96875 0 Z M 1.578125 0 "/></g></g></g><g fill="#000000" fill-opacity="1"><g transform="translate(243.588072, 164.741069)"><g><path d="M 2.75 0 L 2.75 -29.015625 L 10.78125 -29.015625 L 20.546875 -11.609375 L 20.546875 -29.015625 L 27.40625 -29.015625 L 27.40625 0 L 20.546875 0 L 11.03125 -17.015625 L 9.609375 -17.015625 L 9.609375 0 Z M 2.75 0 "/></g></g></g><g fill="#000000" fill-opacity="1"><g transform="translate(273.749328, 164.741069)"><g><path d="M 2.75 0 L 2.75 -29.015625 L 21.703125 -29.015625 L 27.71875 -23 L 27.71875 -6.03125 L 21.703125 0 Z M 10.125 -5.59375 L 18.5 -5.59375 L 20.59375 -7.671875 L 20.59375 -21.34375 L 18.5 -23.421875 L 10.125 -23.421875 Z M 10.125 -5.59375 "/></g></g></g><g fill="#000000" fill-opacity="1"><g transform="translate(303.044334, 164.741069)"><g><path d="M 6.84375 0 L 2.5625 -4.375 L 2.5625 -29.015625 L 9.921875 -29.015625 L 9.921875 -6.96875 L 11.296875 -5.59375 L 19.296875 -5.59375 L 20.671875 -6.96875 L 20.671875 -29.015625 L 28.03125 -29.015625 L 28.03125 -4.375 L 23.671875 0 Z M 6.84375 0 "/></g></g></g><g fill="#000000" fill-opacity="1"><g transform="translate(333.638714, 164.741069)"><g><path d="M 2.90625 0 L 2.90625 -5.90625 L 18.03125 -5.90625 L 19.40625 -7.28125 L 19.40625 -10.515625 L 18.03125 -11.890625 L 6.140625 -11.890625 L 1.765625 -16.296875 L 1.765625 -24.65625 L 6.140625 -29.015625 L 25.125 -29.015625 L 25.125 -23.109375 L 10.390625 -23.109375 L 9.015625 -21.734375 L 9.015625 -19.171875 L 10.390625 -17.796875 L 22.28125 -17.796875 L 26.65625 -13.421875 L 26.65625 -4.375 L 22.28125 0 Z M 2.90625 0 "/></g></g></g><g fill="#000000" fill-opacity="1"><g transform="translate(362.067471, 164.741069)"><g><path d="M 8.3125 0 L 8.3125 -23.03125 L 0.203125 -23.03125 L 0.203125 -29.015625 L 23.78125 -29.015625 L 23.78125 -23.03125 L 15.671875 -23.03125 L 15.671875 0 Z M 8.3125 0 "/></g></g></g><g fill="#000000" fill-opacity="1"><g transform="translate(386.046846, 164.741069)"><g><path d="M 2.75 0 L 2.75 -29.015625 L 22.515625 -29.015625 L 26.9375 -24.65625 L 26.9375 -14.25 L 23.625 -10.953125 L 28.03125 0 L 20.625 0 L 16.8125 -9.890625 L 10.125 -9.890625 L 10.125 0 Z M 10.125 -15.46875 L 18.390625 -15.46875 L 19.765625 -16.859375 L 19.765625 -22.046875 L 18.390625 -23.421875 L 10.125 -23.421875 Z M 10.125 -15.46875 "/></g></g></g><g fill="#000000" fill-opacity="1"><g transform="translate(415.263094, 164.741069)"><g><path d="M 1.578125 0 L 1.578125 -5.546875 L 4.796875 -5.546875 L 4.71875 -23.46875 L 1.578125 -23.46875 L 1.578125 -29.015625 L 14.96875 -29.015625 L 14.96875 -23.46875 L 11.765625 -23.46875 L 11.6875 -5.546875 L 14.96875 -5.546875 L 14.96875 0 Z M 1.578125 0 "/></g></g></g><g fill="#000000" fill-opacity="1"><g transform="translate(431.800595, 164.741069)"><g><path d="M 0 0 L 8.5 -29.015625 L 20.46875 -29.015625 L 28.984375 0 L 21.1875 0 L 19.734375 -5.78125 L 9.25 -5.78125 L 7.796875 0 Z M 10.703125 -11.453125 L 18.265625 -11.453125 L 15.203125 -23.46875 L 13.78125 -23.46875 Z M 10.703125 -11.453125 "/></g></g></g><g fill="#000000" fill-opacity="1"><g transform="translate(460.780603, 164.741069)"><g><path d="M 2.75 0 L 2.75 -29.015625 L 10.125 -29.015625 L 10.125 -5.984375 L 23.421875 -5.984375 L 23.421875 0 Z M 2.75 0 "/></g></g></g><g fill="#000000" fill-opacity="1"><g transform="translate(484.799368, 164.741069)"><g/></g></g><g fill="#000000" fill-opacity="1"><g transform="translate(494.485623, 164.741069)"><g><path d="M 0 0 L 8.5 -29.015625 L 20.46875 -29.015625 L 28.984375 0 L 21.1875 0 L 19.734375 -5.78125 L 9.25 -5.78125 L 7.796875 0 Z M 10.703125 -11.453125 L 18.265625 -11.453125 L 15.203125 -23.46875 L 13.78125 -23.46875 Z M 10.703125 -11.453125 "/></g></g></g><g fill="#000000" fill-opacity="1"><g transform="translate(523.465631, 164.741069)"><g><path d="M 6.84375 0 L 2.5625 -4.375 L 2.5625 -29.015625 L 9.921875 -29.015625 L 9.921875 -6.96875 L 11.296875 -5.59375 L 19.296875 -5.59375 L 20.671875 -6.96875 L 20.671875 -29.015625 L 28.03125 -29.015625 L 28.03125 -4.375 L 23.671875 0 Z M 6.84375 0 "/></g></g></g><g fill="#000000" fill-opacity="1"><g transform="translate(554.060011, 164.741069)"><g><path d="M 8.3125 0 L 8.3125 -23.03125 L 0.203125 -23.03125 L 0.203125 -29.015625 L 23.78125 -29.015625 L 23.78125 -23.03125 L 15.671875 -23.03125 L 15.671875 0 Z M 8.3125 0 "/></g></g></g><g fill="#000000" fill-opacity="1"><g transform="translate(578.039386, 164.741069)"><g><path d="M 6.34375 0 L 1.96875 -4.375 L 1.96875 -24.65625 L 6.34375 -29.015625 L 23.34375 -29.015625 L 27.71875 -24.65625 L 27.71875 -4.375 L 23.34375 0 Z M 10.75 -5.59375 L 19.015625 -5.59375 L 20.390625 -6.96875 L 20.390625 -22.046875 L 18.9375 -23.421875 L 10.75 -23.421875 L 9.328125 -22.046875 L 9.328125 -6.96875 Z M 10.75 -5.59375 "/></g></g></g><g fill="#000000" fill-opacity="1"><g transform="translate(607.728126, 164.741069)"><g><path d="M 2.75 0 L 2.75 -29.015625 L 9.96875 -29.015625 L 17.4375 -11.375 L 24.921875 -29.015625 L 32.09375 -29.015625 L 32.09375 0 L 25.234375 0 L 25.234375 -15.953125 L 19.171875 -1.265625 L 15.703125 -1.265625 L 9.609375 -15.953125 L 9.609375 0 Z M 2.75 0 "/></g></g></g><g fill="#000000" fill-opacity="1"><g transform="translate(642.575014, 164.741069)"><g><path d="M 0 0 L 8.5 -29.015625 L 20.46875 -29.015625 L 28.984375 0 L 21.1875 0 L 19.734375 -5.78125 L 9.25 -5.78125 L 7.796875 0 Z M 10.703125 -11.453125 L 18.265625 -11.453125 L 15.203125 -23.46875 L 13.78125 -23.46875 Z M 10.703125 -11.453125 "/></g></g></g><g fill="#000000" fill-opacity="1"><g transform="translate(671.555022, 164.741069)"><g><path d="M 8.3125 0 L 8.3125 -23.03125 L 0.203125 -23.03125 L 0.203125 -29.015625 L 23.78125 -29.015625 L 23.78125 -23.03125 L 15.671875 -23.03125 L 15.671875 0 Z M 8.3125 0 "/></g></g></g><g fill="#000000" fill-opacity="1"><g transform="translate(695.534374, 164.741069)"><g><path d="M 1.578125 0 L 1.578125 -5.546875 L 4.796875 -5.546875 L 4.71875 -23.46875 L 1.578125 -23.46875 L 1.578125 -29.015625 L 14.96875 -29.015625 L 14.96875 -23.46875 L 11.765625 -23.46875 L 11.6875 -5.546875 L 14.96875 -5.546875 L 14.96875 0 Z M 1.578125 0 "/></g></g></g><g fill="#000000" fill-opacity="1"><g transform="translate(712.071863, 164.741069)"><g><path d="M 6.34375 0 L 1.96875 -4.375 L 1.96875 -24.65625 L 6.34375 -29.015625 L 23.34375 -29.015625 L 27.71875 -24.65625 L 27.71875 -4.375 L 23.34375 0 Z M 10.75 -5.59375 L 19.015625 -5.59375 L 20.390625 -6.96875 L 20.390625 -22.046875 L 18.9375 -23.421875 L 10.75 -23.421875 L 9.328125 -22.046875 L 9.328125 -6.96875 Z M 10.75 -5.59375 "/></g></g></g><g fill="#000000" fill-opacity="1"><g transform="translate(741.760626, 164.741069)"><g><path d="M 2.75 0 L 2.75 -29.015625 L 10.78125 -29.015625 L 20.546875 -11.609375 L 20.546875 -29.015625 L 27.40625 -29.015625 L 27.40625 0 L 20.546875 0 L 11.03125 -17.015625 L 9.609375 -17.015625 L 9.609375 0 Z M 2.75 0 "/></g></g></g><g fill="#000000" fill-opacity="1"><g transform="translate(149.674401, 472.362244)"><g><path d="M 0 -2.578125 L -1.78125 -0.796875 L -10.015625 -0.796875 L -11.796875 -2.578125 L -11.796875 -8.640625 L -10.015625 -10.4375 L -7.625 -10.4375 L -7.625 -7.515625 L -8.953125 -7.515625 L -9.515625 -6.9375 L -9.515625 -4.375 L -8.953125 -3.796875 L -2.828125 -3.796875 L -2.265625 -4.375 L -2.265625 -7.046875 L -2.828125 -7.625 L -4.171875 -7.625 L -4.171875 -10.53125 L -1.78125 -10.53125 L 0 -8.75 Z M 0 -2.578125 "/></g></g></g><g fill="#000000" fill-opacity="1"><g transform="translate(149.674401, 461.644819)"><g><path d="M 0 -2.578125 L -1.78125 -0.796875 L -6.578125 -0.796875 L -8.359375 -2.578125 L -8.359375 -7.796875 L -6.578125 -9.5625 L -1.78125 -9.5625 L 0 -7.796875 Z M -1.65625 -4.359375 L -1.65625 -6.015625 L -2.234375 -6.578125 L -6.125 -6.578125 L -6.6875 -6.015625 L -6.6875 -4.359375 L -6.125 -3.796875 L -2.234375 -3.796875 Z M -1.65625 -4.359375 "/></g></g></g><g fill="#000000" fill-opacity="1"><g transform="translate(149.674401, 451.279312)"><g><path d="M 0 -1.046875 L -8.375 -1.046875 L -8.375 -4.03125 L -7.21875 -4.03125 L -8.375 -5.4375 L -8.375 -8.3125 L -7.03125 -9.640625 L -8.375 -11.296875 L -8.375 -14.171875 L -6.578125 -15.953125 L 0 -15.953125 L 0 -12.953125 L -6.15625 -12.953125 L -6.671875 -12.421875 L -6.671875 -11.546875 L -5.4375 -10.09375 L 0 -10.09375 L 0 -7.109375 L -6.15625 -7.109375 L -6.671875 -6.5625 L -6.671875 -5.703125 L -5.265625 -4.03125 L 0 -4.03125 Z M 0 -1.046875 "/></g></g></g><g fill="#000000" fill-opacity="1"><g transform="translate(149.674401, 434.45136)"><g><path d="M 2.984375 -1.046875 L -8.359375 -1.046875 L -8.359375 -4.03125 L -7.375 -4.03125 L -8.375 -5.1875 L -8.375 -8.1875 L -6.578125 -9.96875 L -1.78125 -9.96875 L 0 -8.1875 L 0 -5.203125 L -0.96875 -4.03125 L 2.984375 -4.03125 Z M -1.71875 -5.40625 L -1.71875 -6.671875 L -2.109375 -7.0625 L -6.21875 -7.0625 L -6.65625 -6.671875 L -6.65625 -5.390625 L -5.453125 -4.03125 L -2.890625 -4.03125 Z M -1.71875 -5.40625 "/></g></g></g><g fill="#000000" fill-opacity="1"><g transform="translate(149.674401, 423.68595)"><g><path d="M 0.015625 -2.65625 L -1.765625 -0.875 L -8.359375 -0.875 L -8.359375 -3.875 L -2.234375 -3.875 L -1.6875 -4.4375 L -1.6875 -5.09375 L -3.0625 -6.703125 L -8.359375 -6.703125 L -8.359375 -9.703125 L 0 -9.703125 L 0 -6.703125 L -1.125 -6.703125 L 0.015625 -5.3125 Z M 0.015625 -2.65625 "/></g></g></g><g fill="#000000" fill-opacity="1"><g transform="translate(149.674401, 412.952526)"><g><path d="M 0 -2.765625 L -1.546875 -1.09375 L -6.5 -1.09375 L -6.5 -0.484375 L -8.359375 -0.484375 L -8.359375 -1.203125 L -10.734375 -2.109375 L -10.734375 -4.078125 L -8.359375 -4.078125 L -8.359375 -5.390625 L -6.5 -5.390625 L -6.5 -4.078125 L -2.34375 -4.078125 L -1.90625 -4.515625 L -1.90625 -5.734375 L 0 -5.734375 Z M 0 -2.765625 "/></g></g></g><g fill="#000000" fill-opacity="1"><g transform="translate(149.674401, 406.826001)"><g><path d="M 0 -2.578125 L -1.78125 -0.796875 L -6.578125 -0.796875 L -8.359375 -2.578125 L -8.359375 -7.28125 L -6.578125 -9.0625 L -3.40625 -9.0625 L -3.40625 -3.796875 L -2.671875 -3.796875 L -2.109375 -4.375 L -2.109375 -8.921875 L 0 -8.921875 Z M -5.140625 -3.796875 L -5.140625 -6.34375 L -6.125 -6.34375 L -6.6875 -5.765625 L -6.6875 -4.375 L -6.125 -3.796875 Z M -5.140625 -3.796875 "/></g></g></g><g fill="#000000" fill-opacity="1"><g transform="translate(149.674401, 396.892393)"><g><path d="M 0 -1.046875 L -8.375 -1.046875 L -8.375 -4.03125 L -7.0625 -4.03125 L -8.359375 -5.453125 L -8.359375 -7.09375 L -5.6875 -7.09375 L -5.6875 -4.6875 L -5.09375 -4.03125 L 0 -4.03125 Z M 0 -1.046875 "/></g></g></g><g fill="#000000" fill-opacity="1"><g transform="translate(149.674401, 389.646133)"><g><path d="M -9.28125 -1.046875 L -11.515625 -1.046875 L -11.515625 -4.03125 L -9.28125 -4.03125 Z M 0 -1.046875 L -8.375 -1.046875 L -8.375 -4.03125 L 0 -4.03125 Z M 0 -1.046875 "/></g></g></g><g fill="#000000" fill-opacity="1"><g transform="translate(149.674401, 384.575348)"><g><path d="M 0 -0.71875 L -1.984375 -0.71875 L -6.3125 -4.65625 L -6.3125 -1.09375 L -8.359375 -1.09375 L -8.359375 -8.6875 L -6.3125 -8.6875 L -2.046875 -4.78125 L -2.046875 -8.8125 L 0 -8.8125 Z M 0 -0.71875 "/></g></g></g><g fill="#000000" fill-opacity="1"><g transform="translate(149.674401, 374.961659)"><g><path d="M 0 -2.578125 L -1.78125 -0.796875 L -6.578125 -0.796875 L -8.359375 -2.578125 L -8.359375 -7.28125 L -6.578125 -9.0625 L -3.40625 -9.0625 L -3.40625 -3.796875 L -2.671875 -3.796875 L -2.109375 -4.375 L -2.109375 -8.921875 L 0 -8.921875 Z M -5.140625 -3.796875 L -5.140625 -6.34375 L -6.125 -6.34375 L -6.6875 -5.765625 L -6.6875 -4.375 L -6.125 -3.796875 Z M -5.140625 -3.796875 "/></g></g></g><g fill="#000000" fill-opacity="1"><g transform="translate(149.674401, 365.028051)"><g><path d="M 0 -2.578125 L -1.78125 -0.796875 L -6.578125 -0.796875 L -8.375 -2.578125 L -8.375 -5.578125 L -7.34375 -6.78125 L -11.796875 -6.78125 L -11.796875 -9.78125 L 0 -9.78125 L 0 -6.78125 L -1.015625 -6.78125 L 0 -5.5625 Z M -1.71875 -4.09375 L -1.71875 -5.359375 L -2.9375 -6.78125 L -5.421875 -6.78125 L -6.65625 -5.375 L -6.65625 -4.09375 L -6.21875 -3.71875 L -2.109375 -3.71875 Z M -1.71875 -4.09375 "/></g></g></g><g fill="#000000" fill-opacity="1"><g transform="translate(149.674401, 354.214645)"><g/></g></g><g fill="#000000" fill-opacity="1"><g transform="translate(149.674401, 350.279594)"><g><path d="M 0 -1.125 L -11.796875 -1.125 L -11.796875 -4.390625 L -4.71875 -8.359375 L -11.796875 -8.359375 L -11.796875 -11.140625 L 0 -11.140625 L 0 -8.359375 L -6.90625 -4.484375 L -6.90625 -3.90625 L 0 -3.90625 Z M 0 -1.125 "/></g></g></g><g fill="#000000" fill-opacity="1"><g transform="translate(149.674401, 338.026544)"><g><path d="M 0.015625 -2.65625 L -1.765625 -0.875 L -8.359375 -0.875 L -8.359375 -3.875 L -2.234375 -3.875 L -1.6875 -4.4375 L -1.6875 -5.09375 L -3.0625 -6.703125 L -8.359375 -6.703125 L -8.359375 -9.703125 L 0 -9.703125 L 0 -6.703125 L -1.125 -6.703125 L 0.015625 -5.3125 Z M 0.015625 -2.65625 "/></g></g></g><g fill="#000000" fill-opacity="1"><g transform="translate(149.674401, 327.29312)"><g><path d="M 0 -1.046875 L -8.375 -1.046875 L -8.375 -4.03125 L -7.21875 -4.03125 L -8.375 -5.4375 L -8.375 -8.3125 L -7.03125 -9.640625 L -8.375 -11.296875 L -8.375 -14.171875 L -6.578125 -15.953125 L 0 -15.953125 L 0 -12.953125 L -6.15625 -12.953125 L -6.671875 -12.421875 L -6.671875 -11.546875 L -5.4375 -10.09375 L 0 -10.09375 L 0 -7.109375 L -6.15625 -7.109375 L -6.671875 -6.5625 L -6.671875 -5.703125 L -5.265625 -4.03125 L 0 -4.03125 Z M 0 -1.046875 "/></g></g></g><g fill="#000000" fill-opacity="1"><g transform="translate(149.674401, 310.465169)"><g><path d="M 0 -2.578125 L -1.78125 -0.796875 L -6.578125 -0.796875 L -8.359375 -2.578125 L -8.359375 -7.28125 L -6.578125 -9.0625 L -3.40625 -9.0625 L -3.40625 -3.796875 L -2.671875 -3.796875 L -2.109375 -4.375 L -2.109375 -8.921875 L 0 -8.921875 Z M -5.140625 -3.796875 L -5.140625 -6.34375 L -6.125 -6.34375 L -6.6875 -5.765625 L -6.6875 -4.375 L -6.125 -3.796875 Z M -5.140625 -3.796875 "/></g></g></g><g fill="#000000" fill-opacity="1"><g transform="translate(149.674401, 300.531561)"><g><path d="M 0 -1.046875 L -8.375 -1.046875 L -8.375 -4.03125 L -7.0625 -4.03125 L -8.359375 -5.453125 L -8.359375 -7.09375 L -5.6875 -7.09375 L -5.6875 -4.6875 L -5.09375 -4.03125 L 0 -4.03125 Z M 0 -1.046875 "/></g></g></g><g fill="#000000" fill-opacity="1"><g transform="translate(149.674401, 293.2853)"><g><path d="M -9.28125 -1.046875 L -11.515625 -1.046875 L -11.515625 -4.03125 L -9.28125 -4.03125 Z M 0 -1.046875 L -8.375 -1.046875 L -8.375 -4.03125 L 0 -4.03125 Z M 0 -1.046875 "/></g></g></g><g fill="#000000" fill-opacity="1"><g transform="translate(149.674401, 288.214515)"><g><path d="M 0 -2.578125 L -1.78125 -0.796875 L -6.578125 -0.796875 L -8.359375 -2.578125 L -8.359375 -7.4375 L -6.8125 -9.125 L -5.1875 -9.125 L -5.1875 -6.125 L -6.125 -6.125 L -6.6875 -5.5625 L -6.6875 -4.359375 L -6.125 -3.796875 L -2.671875 -3.796875 L -2.109375 -4.359375 L -2.109375 -8.9375 L 0 -8.9375 Z M 0 -2.578125 "/></g></g></g><g fill="#000000" fill-opacity="1"><g transform="translate(149.674401, 278.456872)"><g><path d="M 0 -2.25 L -1.78125 -0.484375 L -3.546875 -0.484375 L -5.328125 -2.25 L -5.328125 -6.234375 L -5.890625 -6.234375 L -6.46875 -5.65625 L -6.46875 -1.46875 L -8.359375 -1.46875 L -8.359375 -7.4375 L -6.578125 -9.234375 L 0 -9.234375 L 0 -6.234375 L -1.140625 -6.234375 L 0 -5.140625 Z M -1.625 -4.015625 L -1.625 -4.875 L -2.984375 -6.234375 L -3.84375 -6.234375 L -3.84375 -4.015625 L -3.28125 -3.453125 L -2.1875 -3.453125 Z M -1.625 -4.015625 "/></g></g></g><g fill="#000000" fill-opacity="1"><g transform="translate(149.674401, 268.3473)"><g><path d="M 0 -1.046875 L -11.796875 -1.046875 L -11.796875 -4.03125 L 0 -4.03125 Z M 0 -1.046875 "/></g></g></g><g fill="#000000" fill-opacity="1"><g transform="translate(149.674401, 263.276515)"><g/></g></g><g fill="#000000" fill-opacity="1"><g transform="translate(149.674401, 259.341464)"><g><path d="M 0 -2.578125 L -1.78125 -0.796875 L -10.015625 -0.796875 L -11.796875 -2.578125 L -11.796875 -8.640625 L -10.015625 -10.4375 L -7.625 -10.4375 L -7.625 -7.515625 L -8.953125 -7.515625 L -9.515625 -6.9375 L -9.515625 -4.375 L -8.953125 -3.796875 L -2.828125 -3.796875 L -2.265625 -4.375 L -2.265625 -7.046875 L -2.828125 -7.625 L -4.171875 -7.625 L -4.171875 -10.53125 L -1.78125 -10.53125 L 0 -8.75 Z M 0 -2.578125 "/></g></g></g><g fill="#000000" fill-opacity="1"><g transform="translate(149.674401, 248.62405)"><g><path d="M 0 -2.578125 L -1.78125 -0.796875 L -6.578125 -0.796875 L -8.359375 -2.578125 L -8.359375 -7.796875 L -6.578125 -9.5625 L -1.78125 -9.5625 L 0 -7.796875 Z M -1.65625 -4.359375 L -1.65625 -6.015625 L -2.234375 -6.578125 L -6.125 -6.578125 L -6.6875 -6.015625 L -6.6875 -4.359375 L -6.125 -3.796875 L -2.234375 -3.796875 Z M -1.65625 -4.359375 "/></g></g></g><g fill="#000000" fill-opacity="1"><g transform="translate(149.674401, 238.258543)"><g><path d="M 0 -1.046875 L -8.375 -1.046875 L -8.375 -4.03125 L -7.21875 -4.03125 L -8.375 -5.4375 L -8.375 -8.3125 L -6.578125 -10.09375 L 0 -10.09375 L 0 -7.109375 L -6.15625 -7.109375 L -6.671875 -6.5625 L -6.671875 -5.703125 L -5.265625 -4.03125 L 0 -4.03125 Z M 0 -1.046875 "/></g></g></g><g fill="#000000" fill-opacity="1"><g transform="translate(149.674401, 227.28517)"><g><path d="M 0 -2.765625 L -1.546875 -1.09375 L -6.5 -1.09375 L -6.5 -0.484375 L -8.359375 -0.484375 L -8.359375 -1.203125 L -10.734375 -2.109375 L -10.734375 -4.078125 L -8.359375 -4.078125 L -8.359375 -5.390625 L -6.5 -5.390625 L -6.5 -4.078125 L -2.34375 -4.078125 L -1.90625 -4.515625 L -1.90625 -5.734375 L 0 -5.734375 Z M 0 -2.765625 "/></g></g></g><g fill="#000000" fill-opacity="1"><g transform="translate(149.674401, 221.158645)"><g><path d="M 0 -1.046875 L -8.375 -1.046875 L -8.375 -4.03125 L -7.0625 -4.03125 L -8.359375 -5.453125 L -8.359375 -7.09375 L -5.6875 -7.09375 L -5.6875 -4.6875 L -5.09375 -4.03125 L 0 -4.03125 Z M 0 -1.046875 "/></g></g></g><g fill="#000000" fill-opacity="1"><g transform="translate(149.674401, 213.912385)"><g><path d="M 0 -2.578125 L -1.78125 -0.796875 L -6.578125 -0.796875 L -8.359375 -2.578125 L -8.359375 -7.796875 L -6.578125 -9.5625 L -1.78125 -9.5625 L 0 -7.796875 Z M -1.65625 -4.359375 L -1.65625 -6.015625 L -2.234375 -6.578125 L -6.125 -6.578125 L -6.6875 -6.015625 L -6.6875 -4.359375 L -6.125 -3.796875 L -2.234375 -3.796875 Z M -1.65625 -4.359375 "/></g></g></g><g fill="#000000" fill-opacity="1"><g transform="translate(149.674401, 203.546877)"><g><path d="M 0 -1.046875 L -11.796875 -1.046875 L -11.796875 -4.03125 L 0 -4.03125 Z M 0 -1.046875 "/></g></g></g><g fill="#000000" fill-opacity="1"><g transform="translate(264.965933, 372.3896)"><g><path d="M 0 -1.125 L -11.796875 -1.125 L -11.796875 -9.15625 L -10.015625 -10.9375 L -5.796875 -10.9375 L -4.453125 -9.59375 L 0 -11.390625 L 0 -8.390625 L -4.015625 -6.828125 L -4.015625 -4.109375 L 0 -4.109375 Z M -6.28125 -4.109375 L -6.28125 -7.46875 L -6.84375 -8.03125 L -8.953125 -8.03125 L -9.515625 -7.46875 L -9.515625 -4.109375 Z M -6.28125 -4.109375 "/></g></g></g><g fill="#000000" fill-opacity="1"><g transform="translate(264.965933, 360.520453)"><g><path d="M 0 -2.578125 L -1.78125 -0.796875 L -6.578125 -0.796875 L -8.359375 -2.578125 L -8.359375 -7.796875 L -6.578125 -9.5625 L -1.78125 -9.5625 L 0 -7.796875 Z M -1.65625 -4.359375 L -1.65625 -6.015625 L -2.234375 -6.578125 L -6.125 -6.578125 L -6.6875 -6.015625 L -6.6875 -4.359375 L -6.125 -3.796875 L -2.234375 -3.796875 Z M -1.65625 -4.359375 "/></g></g></g><g fill="#000000" fill-opacity="1"><g transform="translate(264.965933, 350.154945)"><g><path d="M 0 -1.046875 L -11.796875 -1.046875 L -11.796875 -4.03125 L -7.328125 -4.03125 L -8.375 -5.234375 L -8.375 -8.234375 L -6.578125 -10.015625 L -1.78125 -10.015625 L 0 -8.234375 L 0 -5.25 L -1.015625 -4.03125 L 0 -4.03125 Z M -1.71875 -5.453125 L -1.71875 -6.71875 L -2.109375 -7.109375 L -6.21875 -7.109375 L -6.65625 -6.71875 L -6.65625 -5.4375 L -5.421875 -4.03125 L -2.9375 -4.03125 Z M -1.71875 -5.453125 "/></g></g></g><g fill="#000000" fill-opacity="1"><g transform="translate(264.965933, 339.341538)"><g><path d="M 0 -2.578125 L -1.78125 -0.796875 L -6.578125 -0.796875 L -8.359375 -2.578125 L -8.359375 -7.796875 L -6.578125 -9.5625 L -1.78125 -9.5625 L 0 -7.796875 Z M -1.65625 -4.359375 L -1.65625 -6.015625 L -2.234375 -6.578125 L -6.125 -6.578125 L -6.6875 -6.015625 L -6.6875 -4.359375 L -6.125 -3.796875 L -2.234375 -3.796875 Z M -1.65625 -4.359375 "/></g></g></g><g fill="#000000" fill-opacity="1"><g transform="translate(264.965933, 328.976031)"><g><path d="M 0 -2.765625 L -1.546875 -1.09375 L -6.5 -1.09375 L -6.5 -0.484375 L -8.359375 -0.484375 L -8.359375 -1.203125 L -10.734375 -2.109375 L -10.734375 -4.078125 L -8.359375 -4.078125 L -8.359375 -5.390625 L -6.5 -5.390625 L -6.5 -4.078125 L -2.34375 -4.078125 L -1.90625 -4.515625 L -1.90625 -5.734375 L 0 -5.734375 Z M 0 -2.765625 "/></g></g></g><g fill="#000000" fill-opacity="1"><g transform="translate(264.965933, 322.849505)"><g><path d="M -9.28125 -1.046875 L -11.515625 -1.046875 L -11.515625 -4.03125 L -9.28125 -4.03125 Z M 0 -1.046875 L -8.375 -1.046875 L -8.375 -4.03125 L 0 -4.03125 Z M 0 -1.046875 "/></g></g></g><g fill="#000000" fill-opacity="1"><g transform="translate(264.965933, 317.778721)"><g><path d="M 0 -2.578125 L -1.78125 -0.796875 L -6.578125 -0.796875 L -8.359375 -2.578125 L -8.359375 -7.4375 L -6.8125 -9.125 L -5.1875 -9.125 L -5.1875 -6.125 L -6.125 -6.125 L -6.6875 -5.5625 L -6.6875 -4.359375 L -6.125 -3.796875 L -2.671875 -3.796875 L -2.109375 -4.359375 L -2.109375 -8.9375 L 0 -8.9375 Z M 0 -2.578125 "/></g></g></g><g fill="#000000" fill-opacity="1"><g transform="translate(264.965933, 308.021066)"><g><path d="M 0 -1.078125 L -2.0625 -1.078125 L -2.0625 -5.5625 L -2.5 -6.015625 L -2.828125 -6.015625 L -3.28125 -5.5625 L -3.28125 -2.359375 L -4.828125 -0.640625 L -6.796875 -0.640625 L -8.359375 -2.34375 L -8.359375 -8.125 L -6.296875 -8.125 L -6.296875 -3.9375 L -5.859375 -3.53125 L -5.625 -3.53125 L -5.1875 -3.96875 L -5.1875 -7.234375 L -3.625 -8.9375 L -1.5625 -8.9375 L 0 -7.25 Z M 0 -1.078125 "/></g></g></g><g fill="#000000" fill-opacity="1"><g transform="translate(388.823233, 387.413036)"><g><path d="M 0 -0.640625 L -2.25 -0.640625 L -2.25 -1.953125 L -9.53125 -1.921875 L -9.53125 -0.640625 L -11.796875 -0.640625 L -11.796875 -6.078125 L -9.53125 -6.078125 L -9.53125 -4.78125 L -2.25 -4.75 L -2.25 -6.078125 L 0 -6.078125 Z M 0 -0.640625 "/></g></g></g><g fill="#000000" fill-opacity="1"><g transform="translate(388.823233, 380.694645)"><g><path d="M 0 -1.046875 L -8.375 -1.046875 L -8.375 -4.03125 L -7.21875 -4.03125 L -8.375 -5.4375 L -8.375 -8.3125 L -6.578125 -10.09375 L 0 -10.09375 L 0 -7.109375 L -6.15625 -7.109375 L -6.671875 -6.5625 L -6.671875 -5.703125 L -5.265625 -4.03125 L 0 -4.03125 Z M 0 -1.046875 "/></g></g></g><g fill="#000000" fill-opacity="1"><g transform="translate(388.823233, 369.721284)"><g><path d="M 0 -2.578125 L -1.78125 -0.796875 L -6.578125 -0.796875 L -8.375 -2.578125 L -8.375 -5.578125 L -7.34375 -6.78125 L -11.796875 -6.78125 L -11.796875 -9.78125 L 0 -9.78125 L 0 -6.78125 L -1.015625 -6.78125 L 0 -5.5625 Z M -1.71875 -4.09375 L -1.71875 -5.359375 L -2.9375 -6.78125 L -5.421875 -6.78125 L -6.65625 -5.375 L -6.65625 -4.09375 L -6.21875 -3.71875 L -2.109375 -3.71875 Z M -1.71875 -4.09375 "/></g></g></g><g fill="#000000" fill-opacity="1"><g transform="translate(388.823233, 358.907878)"><g><path d="M 0.015625 -2.65625 L -1.765625 -0.875 L -8.359375 -0.875 L -8.359375 -3.875 L -2.234375 -3.875 L -1.6875 -4.4375 L -1.6875 -5.09375 L -3.0625 -6.703125 L -8.359375 -6.703125 L -8.359375 -9.703125 L 0 -9.703125 L 0 -6.703125 L -1.125 -6.703125 L 0.015625 -5.3125 Z M 0.015625 -2.65625 "/></g></g></g><g fill="#000000" fill-opacity="1"><g transform="translate(388.823233, 348.174454)"><g><path d="M 0 -1.078125 L -2.0625 -1.078125 L -2.0625 -5.5625 L -2.5 -6.015625 L -2.828125 -6.015625 L -3.28125 -5.5625 L -3.28125 -2.359375 L -4.828125 -0.640625 L -6.796875 -0.640625 L -8.359375 -2.34375 L -8.359375 -8.125 L -6.296875 -8.125 L -6.296875 -3.9375 L -5.859375 -3.53125 L -5.625 -3.53125 L -5.1875 -3.96875 L -5.1875 -7.234375 L -3.625 -8.9375 L -1.5625 -8.9375 L 0 -7.25 Z M 0 -1.078125 "/></g></g></g><g fill="#000000" fill-opacity="1"><g transform="translate(388.823233, 338.592752)"><g><path d="M 0 -2.765625 L -1.546875 -1.09375 L -6.5 -1.09375 L -6.5 -0.484375 L -8.359375 -0.484375 L -8.359375 -1.203125 L -10.734375 -2.109375 L -10.734375 -4.078125 L -8.359375 -4.078125 L -8.359375 -5.390625 L -6.5 -5.390625 L -6.5 -4.078125 L -2.34375 -4.078125 L -1.90625 -4.515625 L -1.90625 -5.734375 L 0 -5.734375 Z M 0 -2.765625 "/></g></g></g><g fill="#000000" fill-opacity="1"><g transform="translate(388.823233, 332.466227)"><g><path d="M 0 -1.046875 L -8.375 -1.046875 L -8.375 -4.03125 L -7.0625 -4.03125 L -8.359375 -5.453125 L -8.359375 -7.09375 L -5.6875 -7.09375 L -5.6875 -4.6875 L -5.09375 -4.03125 L 0 -4.03125 Z M 0 -1.046875 "/></g></g></g><g fill="#000000" fill-opacity="1"><g transform="translate(388.823233, 325.219966)"><g><path d="M 2.984375 -1.546875 L 0.953125 -1.546875 L 0.953125 -6.28125 L 0.40625 -6.84375 L -1.25 -6.84375 L 0 -5.3125 L 0 -2.65625 L -1.78125 -0.875 L -8.359375 -0.875 L -8.359375 -3.875 L -2.25 -3.875 L -1.703125 -4.4375 L -1.703125 -5.09375 L -3.203125 -6.84375 L -8.359375 -6.84375 L -8.359375 -9.65625 L 1.1875 -9.65625 L 2.984375 -7.875 Z M 2.984375 -1.546875 "/></g></g></g><g fill="#000000" fill-opacity="1"><g transform="translate(388.823233, 314.710491)"><g/></g></g><g fill="#000000" fill-opacity="1"><g transform="translate(388.823233, 310.775441)"><g><path d="M 0 -6.453125 L -1.921875 -6.453125 L -1.921875 -0.40625 L -4.171875 -0.40625 L -11.796875 -6.390625 L -11.796875 -9.4375 L -4.171875 -9.4375 L -4.171875 -10.78125 L -1.921875 -10.78125 L -1.921875 -9.4375 L 0 -9.4375 Z M -4.171875 -3.6875 L -4.171875 -6.453125 L -7.90625 -6.453125 Z M -4.171875 -3.6875 "/></g></g></g><g fill="#000000" fill-opacity="1"><g transform="translate(388.823233, 299.434164)"><g><path d="M 0 -1.046875 L -2.515625 -1.046875 L -2.515625 -3.75 L 0 -3.75 Z M 0 -1.046875 "/></g></g></g><g fill="#000000" fill-opacity="1"><g transform="translate(388.823233, 294.491347)"><g><path d="M 0 -2.578125 L -1.78125 -0.796875 L -10.015625 -0.796875 L -11.796875 -2.578125 L -11.796875 -8.5 L -10.015625 -10.265625 L -1.78125 -10.265625 L 0 -8.5 Z M -2.265625 -4.359375 L -2.265625 -6.71875 L -2.828125 -7.28125 L -8.953125 -7.28125 L -9.515625 -6.71875 L -9.515625 -4.359375 L -8.953125 -3.796875 L -2.828125 -3.796875 Z M -2.265625 -4.359375 "/></g></g></g><g fill="#000000" fill-opacity="1"><g transform="translate(504.114753, 401.557565)"><g><path d="M 0 -1.125 L -11.796875 -1.125 L -11.796875 -9.015625 L -10.015625 -10.78125 L -5.46875 -10.78125 L -3.703125 -9.015625 L -3.703125 -4.109375 L 0 -4.109375 Z M -5.96875 -4.109375 L -5.96875 -7.328125 L -6.53125 -7.890625 L -8.953125 -7.890625 L -9.515625 -7.328125 L -9.515625 -4.109375 Z M -5.96875 -4.109375 "/></g></g></g><g fill="#000000" fill-opacity="1"><g transform="translate(504.114753, 390.536208)"><g><path d="M 0 -1.046875 L -8.375 -1.046875 L -8.375 -4.03125 L -7.0625 -4.03125 L -8.359375 -5.453125 L -8.359375 -7.09375 L -5.6875 -7.09375 L -5.6875 -4.6875 L -5.09375 -4.03125 L 0 -4.03125 Z M 0 -1.046875 "/></g></g></g><g fill="#000000" fill-opacity="1"><g transform="translate(504.114753, 383.289947)"><g><path d="M 0 -2.578125 L -1.78125 -0.796875 L -6.578125 -0.796875 L -8.359375 -2.578125 L -8.359375 -7.796875 L -6.578125 -9.5625 L -1.78125 -9.5625 L 0 -7.796875 Z M -1.65625 -4.359375 L -1.65625 -6.015625 L -2.234375 -6.578125 L -6.125 -6.578125 L -6.6875 -6.015625 L -6.6875 -4.359375 L -6.125 -3.796875 L -2.234375 -3.796875 Z M -1.65625 -4.359375 "/></g></g></g><g fill="#000000" fill-opacity="1"><g transform="translate(504.114753, 372.924439)"><g><path d="M 0 -2.578125 L -1.78125 -0.796875 L -6.578125 -0.796875 L -8.359375 -2.578125 L -8.359375 -7.4375 L -6.8125 -9.125 L -5.1875 -9.125 L -5.1875 -6.125 L -6.125 -6.125 L -6.6875 -5.5625 L -6.6875 -4.359375 L -6.125 -3.796875 L -2.671875 -3.796875 L -2.109375 -4.359375 L -2.109375 -8.9375 L 0 -8.9375 Z M 0 -2.578125 "/></g></g></g><g fill="#000000" fill-opacity="1"><g transform="translate(504.114753, 363.166784)"><g><path d="M 0 -2.578125 L -1.78125 -0.796875 L -6.578125 -0.796875 L -8.359375 -2.578125 L -8.359375 -7.28125 L -6.578125 -9.0625 L -3.40625 -9.0625 L -3.40625 -3.796875 L -2.671875 -3.796875 L -2.109375 -4.375 L -2.109375 -8.921875 L 0 -8.921875 Z M -5.140625 -3.796875 L -5.140625 -6.34375 L -6.125 -6.34375 L -6.6875 -5.765625 L -6.6875 -4.375 L -6.125 -3.796875 Z M -5.140625 -3.796875 "/></g></g></g><g fill="#000000" fill-opacity="1"><g transform="translate(504.114753, 353.233177)"><g><path d="M 0 -1.078125 L -2.0625 -1.078125 L -2.0625 -5.5625 L -2.5 -6.015625 L -2.828125 -6.015625 L -3.28125 -5.5625 L -3.28125 -2.359375 L -4.828125 -0.640625 L -6.796875 -0.640625 L -8.359375 -2.34375 L -8.359375 -8.125 L -6.296875 -8.125 L -6.296875 -3.9375 L -5.859375 -3.53125 L -5.625 -3.53125 L -5.1875 -3.96875 L -5.1875 -7.234375 L -3.625 -8.9375 L -1.5625 -8.9375 L 0 -7.25 Z M 0 -1.078125 "/></g></g></g><g fill="#000000" fill-opacity="1"><g transform="translate(504.114753, 343.651475)"><g><path d="M 0 -1.078125 L -2.0625 -1.078125 L -2.0625 -5.5625 L -2.5 -6.015625 L -2.828125 -6.015625 L -3.28125 -5.5625 L -3.28125 -2.359375 L -4.828125 -0.640625 L -6.796875 -0.640625 L -8.359375 -2.34375 L -8.359375 -8.125 L -6.296875 -8.125 L -6.296875 -3.9375 L -5.859375 -3.53125 L -5.625 -3.53125 L -5.1875 -3.96875 L -5.1875 -7.234375 L -3.625 -8.9375 L -1.5625 -8.9375 L 0 -7.25 Z M 0 -1.078125 "/></g></g></g><g fill="#000000" fill-opacity="1"><g transform="translate(504.114753, 334.069773)"><g/></g></g><g fill="#000000" fill-opacity="1"><g transform="translate(504.114753, 330.134722)"><g><path d="M 0 -2.578125 L -1.78125 -0.796875 L -10.015625 -0.796875 L -11.796875 -2.578125 L -11.796875 -8.640625 L -10.015625 -10.4375 L -7.625 -10.4375 L -7.625 -7.515625 L -8.953125 -7.515625 L -9.515625 -6.9375 L -9.515625 -4.375 L -8.953125 -3.796875 L -2.828125 -3.796875 L -2.265625 -4.375 L -2.265625 -7.046875 L -2.828125 -7.625 L -4.171875 -7.625 L -4.171875 -10.53125 L -1.78125 -10.53125 L 0 -8.75 Z M 0 -2.578125 "/></g></g></g><g fill="#000000" fill-opacity="1"><g transform="translate(504.114753, 319.417297)"><g><path d="M 0 -2.578125 L -1.78125 -0.796875 L -6.578125 -0.796875 L -8.359375 -2.578125 L -8.359375 -7.796875 L -6.578125 -9.5625 L -1.78125 -9.5625 L 0 -7.796875 Z M -1.65625 -4.359375 L -1.65625 -6.015625 L -2.234375 -6.578125 L -6.125 -6.578125 L -6.6875 -6.015625 L -6.6875 -4.359375 L -6.125 -3.796875 L -2.234375 -3.796875 Z M -1.65625 -4.359375 "/></g></g></g><g fill="#000000" fill-opacity="1"><g transform="translate(504.114753, 309.051789)"><g><path d="M 0 -1.046875 L -8.375 -1.046875 L -8.375 -4.03125 L -7.21875 -4.03125 L -8.375 -5.4375 L -8.375 -8.3125 L -6.578125 -10.09375 L 0 -10.09375 L 0 -7.109375 L -6.15625 -7.109375 L -6.671875 -6.5625 L -6.671875 -5.703125 L -5.265625 -4.03125 L 0 -4.03125 Z M 0 -1.046875 "/></g></g></g><g fill="#000000" fill-opacity="1"><g transform="translate(504.114753, 298.078428)"><g><path d="M 0 -2.765625 L -1.546875 -1.09375 L -6.5 -1.09375 L -6.5 -0.484375 L -8.359375 -0.484375 L -8.359375 -1.203125 L -10.734375 -2.109375 L -10.734375 -4.078125 L -8.359375 -4.078125 L -8.359375 -5.390625 L -6.5 -5.390625 L -6.5 -4.078125 L -2.34375 -4.078125 L -1.90625 -4.515625 L -1.90625 -5.734375 L 0 -5.734375 Z M 0 -2.765625 "/></g></g></g><g fill="#000000" fill-opacity="1"><g transform="translate(504.114753, 291.951903)"><g><path d="M 0 -1.046875 L -8.375 -1.046875 L -8.375 -4.03125 L -7.0625 -4.03125 L -8.359375 -5.453125 L -8.359375 -7.09375 L -5.6875 -7.09375 L -5.6875 -4.6875 L -5.09375 -4.03125 L 0 -4.03125 Z M 0 -1.046875 "/></g></g></g><g fill="#000000" fill-opacity="1"><g transform="translate(504.114753, 284.705643)"><g><path d="M 0 -2.578125 L -1.78125 -0.796875 L -6.578125 -0.796875 L -8.359375 -2.578125 L -8.359375 -7.796875 L -6.578125 -9.5625 L -1.78125 -9.5625 L 0 -7.796875 Z M -1.65625 -4.359375 L -1.65625 -6.015625 L -2.234375 -6.578125 L -6.125 -6.578125 L -6.6875 -6.015625 L -6.6875 -4.359375 L -6.125 -3.796875 L -2.234375 -3.796875 Z M -1.65625 -4.359375 "/></g></g></g><g fill="#000000" fill-opacity="1"><g transform="translate(504.114753, 274.340135)"><g><path d="M 0 -1.046875 L -11.796875 -1.046875 L -11.796875 -4.03125 L 0 -4.03125 Z M 0 -1.046875 "/></g></g></g><g fill="#000000" fill-opacity="1"><g transform="translate(614.592998, 448.584885)"><g><path d="M 0 -1.1875 L -2.40625 -1.1875 L -2.40625 -7.328125 L -2.953125 -7.890625 L -4.265625 -7.890625 L -4.828125 -7.328125 L -4.828125 -2.5 L -6.625 -0.71875 L -10.015625 -0.71875 L -11.796875 -2.5 L -11.796875 -10.203125 L -9.390625 -10.203125 L -9.390625 -4.21875 L -8.828125 -3.65625 L -7.796875 -3.65625 L -7.234375 -4.21875 L -7.234375 -9.0625 L -5.453125 -10.828125 L -1.78125 -10.828125 L 0 -9.0625 Z M 0 -1.1875 "/></g></g></g><g fill="#000000" fill-opacity="1"><g transform="translate(614.592998, 437.035658)"><g><path d="M 0.015625 -2.65625 L -1.765625 -0.875 L -8.359375 -0.875 L -8.359375 -3.875 L -2.234375 -3.875 L -1.6875 -4.4375 L -1.6875 -5.09375 L -3.0625 -6.703125 L -8.359375 -6.703125 L -8.359375 -9.703125 L 0 -9.703125 L 0 -6.703125 L -1.125 -6.703125 L 0.015625 -5.3125 Z M 0.015625 -2.65625 "/></g></g></g><g fill="#000000" fill-opacity="1"><g transform="translate(614.592998, 426.302234)"><g><path d="M 2.984375 -1.046875 L -8.359375 -1.046875 L -8.359375 -4.03125 L -7.375 -4.03125 L -8.375 -5.1875 L -8.375 -8.1875 L -6.578125 -9.96875 L -1.78125 -9.96875 L 0 -8.1875 L 0 -5.203125 L -0.96875 -4.03125 L 2.984375 -4.03125 Z M -1.71875 -5.40625 L -1.71875 -6.671875 L -2.109375 -7.0625 L -6.21875 -7.0625 L -6.65625 -6.671875 L -6.65625 -5.390625 L -5.453125 -4.03125 L -2.890625 -4.03125 Z M -1.71875 -5.40625 "/></g></g></g><g fill="#000000" fill-opacity="1"><g transform="translate(614.592998, 415.536824)"><g><path d="M 0 -2.578125 L -1.78125 -0.796875 L -6.578125 -0.796875 L -8.359375 -2.578125 L -8.359375 -7.28125 L -6.578125 -9.0625 L -3.40625 -9.0625 L -3.40625 -3.796875 L -2.671875 -3.796875 L -2.109375 -4.375 L -2.109375 -8.921875 L 0 -8.921875 Z M -5.140625 -3.796875 L -5.140625 -6.34375 L -6.125 -6.34375 L -6.6875 -5.765625 L -6.6875 -4.375 L -6.125 -3.796875 Z M -5.140625 -3.796875 "/></g></g></g><g fill="#000000" fill-opacity="1"><g transform="translate(614.592998, 405.603216)"><g><path d="M 0 -1.046875 L -8.375 -1.046875 L -8.375 -4.03125 L -7.0625 -4.03125 L -8.359375 -5.453125 L -8.359375 -7.09375 L -5.6875 -7.09375 L -5.6875 -4.6875 L -5.09375 -4.03125 L 0 -4.03125 Z M 0 -1.046875 "/></g></g></g><g fill="#000000" fill-opacity="1"><g transform="translate(614.592998, 398.356956)"><g><path d="M 0 -2.953125 L -8.359375 0 L -8.359375 -3.4375 L -2.25 -4.78125 L -2.25 -5.359375 L -8.359375 -6.703125 L -8.359375 -10.140625 L 0 -7.1875 Z M 0 -2.953125 "/></g></g></g><g fill="#000000" fill-opacity="1"><g transform="translate(614.592998, 388.215397)"><g><path d="M -9.28125 -1.046875 L -11.515625 -1.046875 L -11.515625 -4.03125 L -9.28125 -4.03125 Z M 0 -1.046875 L -8.375 -1.046875 L -8.375 -4.03125 L 0 -4.03125 Z M 0 -1.046875 "/></g></g></g><g fill="#000000" fill-opacity="1"><g transform="translate(614.592998, 383.144612)"><g><path d="M 0 -1.078125 L -2.0625 -1.078125 L -2.0625 -5.5625 L -2.5 -6.015625 L -2.828125 -6.015625 L -3.28125 -5.5625 L -3.28125 -2.359375 L -4.828125 -0.640625 L -6.796875 -0.640625 L -8.359375 -2.34375 L -8.359375 -8.125 L -6.296875 -8.125 L -6.296875 -3.9375 L -5.859375 -3.53125 L -5.625 -3.53125 L -5.1875 -3.96875 L -5.1875 -7.234375 L -3.625 -8.9375 L -1.5625 -8.9375 L 0 -7.25 Z M 0 -1.078125 "/></g></g></g><g fill="#000000" fill-opacity="1"><g transform="translate(614.592998, 373.56291)"><g><path d="M 0 -2.578125 L -1.78125 -0.796875 L -6.578125 -0.796875 L -8.359375 -2.578125 L -8.359375 -7.796875 L -6.578125 -9.5625 L -1.78125 -9.5625 L 0 -7.796875 Z M -1.65625 -4.359375 L -1.65625 -6.015625 L -2.234375 -6.578125 L -6.125 -6.578125 L -6.6875 -6.015625 L -6.6875 -4.359375 L -6.125 -3.796875 L -2.234375 -3.796875 Z M -1.65625 -4.359375 "/></g></g></g><g fill="#000000" fill-opacity="1"><g transform="translate(614.592998, 363.197402)"><g><path d="M 0 -1.046875 L -8.375 -1.046875 L -8.375 -4.03125 L -7.0625 -4.03125 L -8.359375 -5.453125 L -8.359375 -7.09375 L -5.6875 -7.09375 L -5.6875 -4.6875 L -5.09375 -4.03125 L 0 -4.03125 Z M 0 -1.046875 "/></g></g></g><g fill="#000000" fill-opacity="1"><g transform="translate(614.592998, 355.951142)"><g><path d="M 2.984375 -1.546875 L 0.953125 -1.546875 L 0.953125 -6.28125 L 0.40625 -6.84375 L -1.25 -6.84375 L 0 -5.3125 L 0 -2.65625 L -1.78125 -0.875 L -8.359375 -0.875 L -8.359375 -3.875 L -2.25 -3.875 L -1.703125 -4.4375 L -1.703125 -5.09375 L -3.203125 -6.84375 L -8.359375 -6.84375 L -8.359375 -9.65625 L 1.1875 -9.65625 L 2.984375 -7.875 Z M 2.984375 -1.546875 "/></g></g></g><g fill="#000000" fill-opacity="1"><g transform="translate(614.592998, 345.441667)"><g/></g></g><g fill="#000000" fill-opacity="1"><g transform="translate(614.592998, 341.506617)"><g><path d="M 0 -2.578125 L -1.78125 -0.796875 L -10.015625 -0.796875 L -11.796875 -2.578125 L -11.796875 -8.640625 L -10.015625 -10.4375 L -7.625 -10.4375 L -7.625 -7.515625 L -8.953125 -7.515625 L -9.515625 -6.9375 L -9.515625 -4.375 L -8.953125 -3.796875 L -2.828125 -3.796875 L -2.265625 -4.375 L -2.265625 -7.046875 L -2.828125 -7.625 L -4.171875 -7.625 L -4.171875 -10.53125 L -1.78125 -10.53125 L 0 -8.75 Z M 0 -2.578125 "/></g></g></g><g fill="#000000" fill-opacity="1"><g transform="translate(614.592998, 330.789192)"><g><path d="M 0 -2.578125 L -1.78125 -0.796875 L -6.578125 -0.796875 L -8.359375 -2.578125 L -8.359375 -7.796875 L -6.578125 -9.5625 L -1.78125 -9.5625 L 0 -7.796875 Z M -1.65625 -4.359375 L -1.65625 -6.015625 L -2.234375 -6.578125 L -6.125 -6.578125 L -6.6875 -6.015625 L -6.6875 -4.359375 L -6.125 -3.796875 L -2.234375 -3.796875 Z M -1.65625 -4.359375 "/></g></g></g><g fill="#000000" fill-opacity="1"><g transform="translate(614.592998, 320.423684)"><g><path d="M 0 -1.046875 L -8.375 -1.046875 L -8.375 -4.03125 L -7.21875 -4.03125 L -8.375 -5.4375 L -8.375 -8.3125 L -6.578125 -10.09375 L 0 -10.09375 L 0 -7.109375 L -6.15625 -7.109375 L -6.671875 -6.5625 L -6.671875 -5.703125 L -5.265625 -4.03125 L 0 -4.03125 Z M 0 -1.046875 "/></g></g></g><g fill="#000000" fill-opacity="1"><g transform="translate(614.592998, 309.450323)"><g><path d="M 0 -2.765625 L -1.546875 -1.09375 L -6.5 -1.09375 L -6.5 -0.484375 L -8.359375 -0.484375 L -8.359375 -1.203125 L -10.734375 -2.109375 L -10.734375 -4.078125 L -8.359375 -4.078125 L -8.359375 -5.390625 L -6.5 -5.390625 L -6.5 -4.078125 L -2.34375 -4.078125 L -1.90625 -4.515625 L -1.90625 -5.734375 L 0 -5.734375 Z M 0 -2.765625 "/></g></g></g><g fill="#000000" fill-opacity="1"><g transform="translate(614.592998, 303.323798)"><g><path d="M 0 -1.046875 L -8.375 -1.046875 L -8.375 -4.03125 L -7.0625 -4.03125 L -8.359375 -5.453125 L -8.359375 -7.09375 L -5.6875 -7.09375 L -5.6875 -4.6875 L -5.09375 -4.03125 L 0 -4.03125 Z M 0 -1.046875 "/></g></g></g><g fill="#000000" fill-opacity="1"><g transform="translate(614.592998, 296.077537)"><g><path d="M 0 -2.578125 L -1.78125 -0.796875 L -6.578125 -0.796875 L -8.359375 -2.578125 L -8.359375 -7.796875 L -6.578125 -9.5625 L -1.78125 -9.5625 L 0 -7.796875 Z M -1.65625 -4.359375 L -1.65625 -6.015625 L -2.234375 -6.578125 L -6.125 -6.578125 L -6.6875 -6.015625 L -6.6875 -4.359375 L -6.125 -3.796875 L -2.234375 -3.796875 Z M -1.65625 -4.359375 "/></g></g></g><g fill="#000000" fill-opacity="1"><g transform="translate(614.592998, 285.712029)"><g><path d="M 0 -1.046875 L -11.796875 -1.046875 L -11.796875 -4.03125 L 0 -4.03125 Z M 0 -1.046875 "/></g></g></g><g fill="#000000" fill-opacity="1"><g transform="translate(614.592998, 280.641244)"><g/></g></g><g fill="#000000" fill-opacity="1"><g transform="translate(614.592998, 276.706194)"><g><path d="M 0.234375 -11.171875 L -0.90625 -10.03125 L 0 -9.140625 L 0 -2.8125 L -1.5625 -1.125 L -4.15625 -1.125 L -6.390625 -3.53125 L -7.96875 -1.796875 L -10.21875 -1.796875 L -11.796875 -3.484375 L -11.796875 -8.609375 L -10.21875 -10.28125 L -8.0625 -10.28125 L -6.265625 -8.34375 L -4.5625 -10.03125 L -5.703125 -11.15625 L -3.890625 -12.96875 L -2.75 -11.828125 L -1.546875 -12.96875 Z M -7.5625 -5.875 L -7.5625 -6.359375 L -8.453125 -7.234375 L -9.4375 -7.234375 L -10 -6.671875 L -10 -5.5625 L -9.4375 -4.984375 L -8.453125 -4.984375 Z M -1.75 -5.109375 L -1.75 -7.25 L -2.640625 -8.140625 L -4.8125 -5.96875 L -3.46875 -4.546875 L -2.296875 -4.546875 Z M -1.75 -5.109375 "/></g></g></g><g fill="#000000" fill-opacity="1"><g transform="translate(614.592998, 262.933506)"><g/></g></g><g fill="#000000" fill-opacity="1"><g transform="translate(614.592998, 258.998455)"><g><path d="M 0 -1.125 L -11.796875 -1.125 L -11.796875 -8.8125 L -9.34375 -11.265625 L -2.453125 -11.265625 L 0 -8.8125 Z M -2.265625 -4.109375 L -2.265625 -7.515625 L -3.125 -8.375 L -8.671875 -8.375 L -9.515625 -7.515625 L -9.515625 -4.109375 Z M -2.265625 -4.109375 "/></g></g></g><g fill="#000000" fill-opacity="1"><g transform="translate(614.592998, 247.097299)"><g><path d="M 0 -2.25 L -1.78125 -0.484375 L -3.546875 -0.484375 L -5.328125 -2.25 L -5.328125 -6.234375 L -5.890625 -6.234375 L -6.46875 -5.65625 L -6.46875 -1.46875 L -8.359375 -1.46875 L -8.359375 -7.4375 L -6.578125 -9.234375 L 0 -9.234375 L 0 -6.234375 L -1.140625 -6.234375 L 0 -5.140625 Z M -1.625 -4.015625 L -1.625 -4.875 L -2.984375 -6.234375 L -3.84375 -6.234375 L -3.84375 -4.015625 L -3.28125 -3.453125 L -2.1875 -3.453125 Z M -1.625 -4.015625 "/></g></g></g><g fill="#000000" fill-opacity="1"><g transform="translate(614.592998, 236.987727)"><g><path d="M 0 -2.765625 L -1.546875 -1.09375 L -6.5 -1.09375 L -6.5 -0.484375 L -8.359375 -0.484375 L -8.359375 -1.203125 L -10.734375 -2.109375 L -10.734375 -4.078125 L -8.359375 -4.078125 L -8.359375 -5.390625 L -6.5 -5.390625 L -6.5 -4.078125 L -2.34375 -4.078125 L -1.90625 -4.515625 L -1.90625 -5.734375 L 0 -5.734375 Z M 0 -2.765625 "/></g></g></g><g fill="#000000" fill-opacity="1"><g transform="translate(614.592998, 230.861202)"><g><path d="M 0 -2.25 L -1.78125 -0.484375 L -3.546875 -0.484375 L -5.328125 -2.25 L -5.328125 -6.234375 L -5.890625 -6.234375 L -6.46875 -5.65625 L -6.46875 -1.46875 L -8.359375 -1.46875 L -8.359375 -7.4375 L -6.578125 -9.234375 L 0 -9.234375 L 0 -6.234375 L -1.140625 -6.234375 L 0 -5.140625 Z M -1.625 -4.015625 L -1.625 -4.875 L -2.984375 -6.234375 L -3.84375 -6.234375 L -3.84375 -4.015625 L -3.28125 -3.453125 L -2.1875 -3.453125 Z M -1.625 -4.015625 "/></g></g></g><g fill="#000000" fill-opacity="1"><g transform="translate(636.342996, 417.612233)"><g><path d="M 0 0 L -11.796875 -3.453125 L -11.796875 -8.3125 L 0 -11.78125 L 0 -8.609375 L -2.359375 -8.015625 L -2.359375 -3.765625 L 0 -3.171875 Z M -4.65625 -4.359375 L -4.65625 -7.421875 L -9.53125 -6.171875 L -9.53125 -5.59375 Z M -4.65625 -4.359375 "/></g></g></g><g fill="#000000" fill-opacity="1"><g transform="translate(636.342996, 405.839056)"><g><path d="M 0 -2.578125 L -1.78125 -0.796875 L -6.578125 -0.796875 L -8.359375 -2.578125 L -8.359375 -7.4375 L -6.8125 -9.125 L -5.1875 -9.125 L -5.1875 -6.125 L -6.125 -6.125 L -6.6875 -5.5625 L -6.6875 -4.359375 L -6.125 -3.796875 L -2.671875 -3.796875 L -2.109375 -4.359375 L -2.109375 -8.9375 L 0 -8.9375 Z M 0 -2.578125 "/></g></g></g><g fill="#000000" fill-opacity="1"><g transform="translate(636.342996, 396.081401)"><g><path d="M 2.984375 -6.734375 L -0.96875 -6.734375 L 0 -5.5625 L 0 -2.578125 L -1.78125 -0.796875 L -6.578125 -0.796875 L -8.375 -2.578125 L -8.375 -5.578125 L -7.375 -6.734375 L -8.359375 -6.734375 L -8.359375 -9.734375 L 2.984375 -9.734375 Z M -1.71875 -4.09375 L -1.71875 -5.359375 L -2.890625 -6.734375 L -5.453125 -6.734375 L -6.65625 -5.375 L -6.65625 -4.09375 L -6.21875 -3.71875 L -2.109375 -3.71875 Z M -1.71875 -4.09375 "/></g></g></g><g fill="#000000" fill-opacity="1"><g transform="translate(636.342996, 385.315991)"><g><path d="M 0.015625 -2.65625 L -1.765625 -0.875 L -8.359375 -0.875 L -8.359375 -3.875 L -2.234375 -3.875 L -1.6875 -4.4375 L -1.6875 -5.09375 L -3.0625 -6.703125 L -8.359375 -6.703125 L -8.359375 -9.703125 L 0 -9.703125 L 0 -6.703125 L -1.125 -6.703125 L 0.015625 -5.3125 Z M 0.015625 -2.65625 "/></g></g></g><g fill="#000000" fill-opacity="1"><g transform="translate(636.342996, 374.582567)"><g><path d="M -9.28125 -1.046875 L -11.515625 -1.046875 L -11.515625 -4.03125 L -9.28125 -4.03125 Z M 0 -1.046875 L -8.375 -1.046875 L -8.375 -4.03125 L 0 -4.03125 Z M 0 -1.046875 "/></g></g></g><g fill="#000000" fill-opacity="1"><g transform="translate(636.342996, 369.511782)"><g><path d="M 0 -1.078125 L -2.0625 -1.078125 L -2.0625 -5.5625 L -2.5 -6.015625 L -2.828125 -6.015625 L -3.28125 -5.5625 L -3.28125 -2.359375 L -4.828125 -0.640625 L -6.796875 -0.640625 L -8.359375 -2.34375 L -8.359375 -8.125 L -6.296875 -8.125 L -6.296875 -3.9375 L -5.859375 -3.53125 L -5.625 -3.53125 L -5.1875 -3.96875 L -5.1875 -7.234375 L -3.625 -8.9375 L -1.5625 -8.9375 L 0 -7.25 Z M 0 -1.078125 "/></g></g></g><g fill="#000000" fill-opacity="1"><g transform="translate(636.342996, 359.93008)"><g><path d="M -9.28125 -1.046875 L -11.515625 -1.046875 L -11.515625 -4.03125 L -9.28125 -4.03125 Z M 0 -1.046875 L -8.375 -1.046875 L -8.375 -4.03125 L 0 -4.03125 Z M 0 -1.046875 "/></g></g></g><g fill="#000000" fill-opacity="1"><g transform="translate(636.342996, 354.859295)"><g><path d="M 0 -2.765625 L -1.546875 -1.09375 L -6.5 -1.09375 L -6.5 -0.484375 L -8.359375 -0.484375 L -8.359375 -1.203125 L -10.734375 -2.109375 L -10.734375 -4.078125 L -8.359375 -4.078125 L -8.359375 -5.390625 L -6.5 -5.390625 L -6.5 -4.078125 L -2.34375 -4.078125 L -1.90625 -4.515625 L -1.90625 -5.734375 L 0 -5.734375 Z M 0 -2.765625 "/></g></g></g><g fill="#000000" fill-opacity="1"><g transform="translate(636.342996, 348.73277)"><g><path d="M -9.28125 -1.046875 L -11.515625 -1.046875 L -11.515625 -4.03125 L -9.28125 -4.03125 Z M 0 -1.046875 L -8.375 -1.046875 L -8.375 -4.03125 L 0 -4.03125 Z M 0 -1.046875 "/></g></g></g><g fill="#000000" fill-opacity="1"><g transform="translate(636.342996, 343.661985)"><g><path d="M 0 -2.578125 L -1.78125 -0.796875 L -6.578125 -0.796875 L -8.359375 -2.578125 L -8.359375 -7.796875 L -6.578125 -9.5625 L -1.78125 -9.5625 L 0 -7.796875 Z M -1.65625 -4.359375 L -1.65625 -6.015625 L -2.234375 -6.578125 L -6.125 -6.578125 L -6.6875 -6.015625 L -6.6875 -4.359375 L -6.125 -3.796875 L -2.234375 -3.796875 Z M -1.65625 -4.359375 "/></g></g></g><g fill="#000000" fill-opacity="1"><g transform="translate(636.342996, 333.296477)"><g><path d="M 0 -1.046875 L -8.375 -1.046875 L -8.375 -4.03125 L -7.21875 -4.03125 L -8.375 -5.4375 L -8.375 -8.3125 L -6.578125 -10.09375 L 0 -10.09375 L 0 -7.109375 L -6.15625 -7.109375 L -6.671875 -6.5625 L -6.671875 -5.703125 L -5.265625 -4.03125 L 0 -4.03125 Z M 0 -1.046875 "/></g></g></g><g fill="#000000" fill-opacity="1"><g transform="translate(636.342996, 322.323117)"><g><path d="M 2.984375 -3.765625 L 0.15625 -1.046875 L -10.859375 -1.046875 L -13.703125 -3.765625 L -13.703125 -5.96875 L -11.796875 -5.96875 L -11.796875 -5.15625 L -10.3125 -3.71875 L -0.40625 -3.71875 L 1.09375 -5.15625 L 1.09375 -5.96875 L 2.984375 -5.96875 Z M 2.984375 -3.765625 "/></g></g></g><g fill="#000000" fill-opacity="1"><g transform="translate(636.342996, 315.87666)"><g><path d="M 0 -1.1875 L -2.40625 -1.1875 L -2.40625 -7.328125 L -2.953125 -7.890625 L -4.265625 -7.890625 L -4.828125 -7.328125 L -4.828125 -2.5 L -6.625 -0.71875 L -10.015625 -0.71875 L -11.796875 -2.5 L -11.796875 -10.203125 L -9.390625 -10.203125 L -9.390625 -4.21875 L -8.828125 -3.65625 L -7.796875 -3.65625 L -7.234375 -4.21875 L -7.234375 -9.0625 L -5.453125 -10.828125 L -1.78125 -10.828125 L 0 -9.0625 Z M 0 -1.1875 "/></g></g></g><g fill="#000000" fill-opacity="1"><g transform="translate(636.342996, 304.327433)"><g><path d="M 0 -2.578125 L -1.78125 -0.796875 L -10.015625 -0.796875 L -11.796875 -2.578125 L -11.796875 -8.640625 L -10.015625 -10.4375 L -7.625 -10.4375 L -7.625 -7.515625 L -8.953125 -7.515625 L -9.515625 -6.9375 L -9.515625 -4.375 L -8.953125 -3.796875 L -2.828125 -3.796875 L -2.265625 -4.375 L -2.265625 -7.046875 L -2.828125 -7.625 L -4.171875 -7.625 L -4.171875 -10.53125 L -1.78125 -10.53125 L 0 -8.75 Z M 0 -2.578125 "/></g></g></g><g fill="#000000" fill-opacity="1"><g transform="translate(636.342996, 293.610008)"><g><path d="M 0 0 L -11.796875 -3.453125 L -11.796875 -8.3125 L 0 -11.78125 L 0 -8.609375 L -2.359375 -8.015625 L -2.359375 -3.765625 L 0 -3.171875 Z M -4.65625 -4.359375 L -4.65625 -7.421875 L -9.53125 -6.171875 L -9.53125 -5.59375 Z M -4.65625 -4.359375 "/></g></g></g><g fill="#000000" fill-opacity="1"><g transform="translate(636.342996, 281.836831)"><g><path d="M 0 -1.125 L -11.796875 -1.125 L -11.796875 -8.8125 L -9.34375 -11.265625 L -2.453125 -11.265625 L 0 -8.8125 Z M -2.265625 -4.109375 L -2.265625 -7.515625 L -3.125 -8.375 L -8.671875 -8.375 L -9.515625 -7.515625 L -9.515625 -4.109375 Z M -2.265625 -4.109375 "/></g></g></g><g fill="#000000" fill-opacity="1"><g transform="translate(636.342996, 269.935687)"><g><path d="M 0 0 L -11.796875 -3.453125 L -11.796875 -8.3125 L 0 -11.78125 L 0 -8.609375 L -2.359375 -8.015625 L -2.359375 -3.765625 L 0 -3.171875 Z M -4.65625 -4.359375 L -4.65625 -7.421875 L -9.53125 -6.171875 L -9.53125 -5.59375 Z M -4.65625 -4.359375 "/></g></g></g><g fill="#000000" fill-opacity="1"><g transform="translate(636.342996, 258.16251)"><g><path d="M 2.984375 -0.484375 L 1.09375 -0.484375 L 1.09375 -1.296875 L -0.390625 -2.734375 L -10.296875 -2.734375 L -11.796875 -1.296875 L -11.796875 -0.484375 L -13.703125 -0.484375 L -13.703125 -2.6875 L -10.859375 -5.40625 L 0.15625 -5.40625 L 2.984375 -2.6875 Z M 2.984375 -0.484375 "/></g></g></g><g fill="#000000" fill-opacity="1"><g transform="translate(745.51361, 448.760685)"><g><path d="M 0 -1.125 L -11.796875 -1.125 L -11.796875 -8.8125 L -9.34375 -11.265625 L -2.453125 -11.265625 L 0 -8.8125 Z M -2.265625 -4.109375 L -2.265625 -7.515625 L -3.125 -8.375 L -8.671875 -8.375 L -9.515625 -7.515625 L -9.515625 -4.109375 Z M -2.265625 -4.109375 "/></g></g></g><g fill="#000000" fill-opacity="1"><g transform="translate(745.51361, 436.85954)"><g><path d="M -9.28125 -1.046875 L -11.515625 -1.046875 L -11.515625 -4.03125 L -9.28125 -4.03125 Z M 0 -1.046875 L -8.375 -1.046875 L -8.375 -4.03125 L 0 -4.03125 Z M 0 -1.046875 "/></g></g></g><g fill="#000000" fill-opacity="1"><g transform="translate(745.51361, 431.788755)"><g><path d="M 0 -1.078125 L -2.0625 -1.078125 L -2.0625 -5.5625 L -2.5 -6.015625 L -2.828125 -6.015625 L -3.28125 -5.5625 L -3.28125 -2.359375 L -4.828125 -0.640625 L -6.796875 -0.640625 L -8.359375 -2.34375 L -8.359375 -8.125 L -6.296875 -8.125 L -6.296875 -3.9375 L -5.859375 -3.53125 L -5.625 -3.53125 L -5.1875 -3.96875 L -5.1875 -7.234375 L -3.625 -8.9375 L -1.5625 -8.9375 L 0 -7.25 Z M 0 -1.078125 "/></g></g></g><g fill="#000000" fill-opacity="1"><g transform="translate(745.51361, 422.207053)"><g><path d="M 0 -2.765625 L -1.546875 -1.09375 L -6.5 -1.09375 L -6.5 -0.484375 L -8.359375 -0.484375 L -8.359375 -1.203125 L -10.734375 -2.109375 L -10.734375 -4.078125 L -8.359375 -4.078125 L -8.359375 -5.390625 L -6.5 -5.390625 L -6.5 -4.078125 L -2.34375 -4.078125 L -1.90625 -4.515625 L -1.90625 -5.734375 L 0 -5.734375 Z M 0 -2.765625 "/></g></g></g><g fill="#000000" fill-opacity="1"><g transform="translate(745.51361, 416.080528)"><g><path d="M 0 -1.046875 L -8.375 -1.046875 L -8.375 -4.03125 L -7.0625 -4.03125 L -8.359375 -5.453125 L -8.359375 -7.09375 L -5.6875 -7.09375 L -5.6875 -4.6875 L -5.09375 -4.03125 L 0 -4.03125 Z M 0 -1.046875 "/></g></g></g><g fill="#000000" fill-opacity="1"><g transform="translate(745.51361, 408.834267)"><g><path d="M -9.28125 -1.046875 L -11.515625 -1.046875 L -11.515625 -4.03125 L -9.28125 -4.03125 Z M 0 -1.046875 L -8.375 -1.046875 L -8.375 -4.03125 L 0 -4.03125 Z M 0 -1.046875 "/></g></g></g><g fill="#000000" fill-opacity="1"><g transform="translate(745.51361, 403.763482)"><g><path d="M 0 -1.046875 L -11.796875 -1.046875 L -11.796875 -4.03125 L -7.328125 -4.03125 L -8.375 -5.234375 L -8.375 -8.234375 L -6.578125 -10.015625 L -1.78125 -10.015625 L 0 -8.234375 L 0 -5.25 L -1.015625 -4.03125 L 0 -4.03125 Z M -1.71875 -5.453125 L -1.71875 -6.71875 L -2.109375 -7.109375 L -6.21875 -7.109375 L -6.65625 -6.71875 L -6.65625 -5.4375 L -5.421875 -4.03125 L -2.9375 -4.03125 Z M -1.71875 -5.453125 "/></g></g></g><g fill="#000000" fill-opacity="1"><g transform="translate(745.51361, 392.950076)"><g><path d="M 0.015625 -2.65625 L -1.765625 -0.875 L -8.359375 -0.875 L -8.359375 -3.875 L -2.234375 -3.875 L -1.6875 -4.4375 L -1.6875 -5.09375 L -3.0625 -6.703125 L -8.359375 -6.703125 L -8.359375 -9.703125 L 0 -9.703125 L 0 -6.703125 L -1.125 -6.703125 L 0.015625 -5.3125 Z M 0.015625 -2.65625 "/></g></g></g><g fill="#000000" fill-opacity="1"><g transform="translate(745.51361, 382.216652)"><g><path d="M 0 -2.765625 L -1.546875 -1.09375 L -6.5 -1.09375 L -6.5 -0.484375 L -8.359375 -0.484375 L -8.359375 -1.203125 L -10.734375 -2.109375 L -10.734375 -4.078125 L -8.359375 -4.078125 L -8.359375 -5.390625 L -6.5 -5.390625 L -6.5 -4.078125 L -2.34375 -4.078125 L -1.90625 -4.515625 L -1.90625 -5.734375 L 0 -5.734375 Z M 0 -2.765625 "/></g></g></g><g fill="#000000" fill-opacity="1"><g transform="translate(745.51361, 376.090127)"><g><path d="M 0 -2.578125 L -1.78125 -0.796875 L -6.578125 -0.796875 L -8.359375 -2.578125 L -8.359375 -7.28125 L -6.578125 -9.0625 L -3.40625 -9.0625 L -3.40625 -3.796875 L -2.671875 -3.796875 L -2.109375 -4.375 L -2.109375 -8.921875 L 0 -8.921875 Z M -5.140625 -3.796875 L -5.140625 -6.34375 L -6.125 -6.34375 L -6.6875 -5.765625 L -6.6875 -4.375 L -6.125 -3.796875 Z M -5.140625 -3.796875 "/></g></g></g><g fill="#000000" fill-opacity="1"><g transform="translate(745.51361, 366.156519)"><g><path d="M 0 -2.578125 L -1.78125 -0.796875 L -6.578125 -0.796875 L -8.375 -2.578125 L -8.375 -5.578125 L -7.34375 -6.78125 L -11.796875 -6.78125 L -11.796875 -9.78125 L 0 -9.78125 L 0 -6.78125 L -1.015625 -6.78125 L 0 -5.5625 Z M -1.71875 -4.09375 L -1.71875 -5.359375 L -2.9375 -6.78125 L -5.421875 -6.78125 L -6.65625 -5.375 L -6.65625 -4.09375 L -6.21875 -3.71875 L -2.109375 -3.71875 Z M -1.71875 -4.09375 "/></g></g></g><g fill="#000000" fill-opacity="1"><g transform="translate(745.51361, 355.343112)"><g/></g></g><g fill="#000000" fill-opacity="1"><g transform="translate(745.51361, 351.408062)"><g><path d="M 0 -2.578125 L -1.78125 -0.796875 L -10.015625 -0.796875 L -11.796875 -2.578125 L -11.796875 -8.640625 L -10.015625 -10.4375 L -7.625 -10.4375 L -7.625 -7.515625 L -8.953125 -7.515625 L -9.515625 -6.9375 L -9.515625 -4.375 L -8.953125 -3.796875 L -2.828125 -3.796875 L -2.265625 -4.375 L -2.265625 -7.046875 L -2.828125 -7.625 L -4.171875 -7.625 L -4.171875 -10.53125 L -1.78125 -10.53125 L 0 -8.75 Z M 0 -2.578125 "/></g></g></g><g fill="#000000" fill-opacity="1"><g transform="translate(745.51361, 340.690637)"><g><path d="M 0 -2.578125 L -1.78125 -0.796875 L -6.578125 -0.796875 L -8.359375 -2.578125 L -8.359375 -7.796875 L -6.578125 -9.5625 L -1.78125 -9.5625 L 0 -7.796875 Z M -1.65625 -4.359375 L -1.65625 -6.015625 L -2.234375 -6.578125 L -6.125 -6.578125 L -6.6875 -6.015625 L -6.6875 -4.359375 L -6.125 -3.796875 L -2.234375 -3.796875 Z M -1.65625 -4.359375 "/></g></g></g><g fill="#000000" fill-opacity="1"><g transform="translate(745.51361, 330.325129)"><g><path d="M 0 -1.046875 L -8.375 -1.046875 L -8.375 -4.03125 L -7.21875 -4.03125 L -8.375 -5.4375 L -8.375 -8.3125 L -6.578125 -10.09375 L 0 -10.09375 L 0 -7.109375 L -6.15625 -7.109375 L -6.671875 -6.5625 L -6.671875 -5.703125 L -5.265625 -4.03125 L 0 -4.03125 Z M 0 -1.046875 "/></g></g></g><g fill="#000000" fill-opacity="1"><g transform="translate(745.51361, 319.351768)"><g><path d="M 0 -2.765625 L -1.546875 -1.09375 L -6.5 -1.09375 L -6.5 -0.484375 L -8.359375 -0.484375 L -8.359375 -1.203125 L -10.734375 -2.109375 L -10.734375 -4.078125 L -8.359375 -4.078125 L -8.359375 -5.390625 L -6.5 -5.390625 L -6.5 -4.078125 L -2.34375 -4.078125 L -1.90625 -4.515625 L -1.90625 -5.734375 L 0 -5.734375 Z M 0 -2.765625 "/></g></g></g><g fill="#000000" fill-opacity="1"><g transform="translate(745.51361, 313.225243)"><g><path d="M 0 -1.046875 L -8.375 -1.046875 L -8.375 -4.03125 L -7.0625 -4.03125 L -8.359375 -5.453125 L -8.359375 -7.09375 L -5.6875 -7.09375 L -5.6875 -4.6875 L -5.09375 -4.03125 L 0 -4.03125 Z M 0 -1.046875 "/></g></g></g><g fill="#000000" fill-opacity="1"><g transform="translate(745.51361, 305.978982)"><g><path d="M 0 -2.578125 L -1.78125 -0.796875 L -6.578125 -0.796875 L -8.359375 -2.578125 L -8.359375 -7.796875 L -6.578125 -9.5625 L -1.78125 -9.5625 L 0 -7.796875 Z M -1.65625 -4.359375 L -1.65625 -6.015625 L -2.234375 -6.578125 L -6.125 -6.578125 L -6.6875 -6.015625 L -6.6875 -4.359375 L -6.125 -3.796875 L -2.234375 -3.796875 Z M -1.65625 -4.359375 "/></g></g></g><g fill="#000000" fill-opacity="1"><g transform="translate(745.51361, 295.613474)"><g><path d="M 0 -1.046875 L -11.796875 -1.046875 L -11.796875 -4.03125 L 0 -4.03125 Z M 0 -1.046875 "/></g></g></g><g fill="#000000" fill-opacity="1"><g transform="translate(745.51361, 290.542689)"><g/></g></g><g fill="#000000" fill-opacity="1"><g transform="translate(745.51361, 286.607639)"><g><path d="M 0 -1.1875 L -2.40625 -1.1875 L -2.40625 -7.328125 L -2.953125 -7.890625 L -4.265625 -7.890625 L -4.828125 -7.328125 L -4.828125 -2.5 L -6.625 -0.71875 L -10.015625 -0.71875 L -11.796875 -2.5 L -11.796875 -10.203125 L -9.390625 -10.203125 L -9.390625 -4.21875 L -8.828125 -3.65625 L -7.796875 -3.65625 L -7.234375 -4.21875 L -7.234375 -9.0625 L -5.453125 -10.828125 L -1.78125 -10.828125 L 0 -9.0625 Z M 0 -1.1875 "/></g></g></g><g fill="#000000" fill-opacity="1"><g transform="translate(745.51361, 275.058411)"><g><path d="M 2.984375 -1.546875 L 0.953125 -1.546875 L 0.953125 -6.28125 L 0.40625 -6.84375 L -1.25 -6.84375 L 0 -5.3125 L 0 -2.65625 L -1.78125 -0.875 L -8.359375 -0.875 L -8.359375 -3.875 L -2.25 -3.875 L -1.703125 -4.4375 L -1.703125 -5.09375 L -3.203125 -6.84375 L -8.359375 -6.84375 L -8.359375 -9.65625 L 1.1875 -9.65625 L 2.984375 -7.875 Z M 2.984375 -1.546875 "/></g></g></g><g fill="#000000" fill-opacity="1"><g transform="translate(745.51361, 264.548937)"><g><path d="M 0 -1.078125 L -2.0625 -1.078125 L -2.0625 -5.5625 L -2.5 -6.015625 L -2.828125 -6.015625 L -3.28125 -5.5625 L -3.28125 -2.359375 L -4.828125 -0.640625 L -6.796875 -0.640625 L -8.359375 -2.34375 L -8.359375 -8.125 L -6.296875 -8.125 L -6.296875 -3.9375 L -5.859375 -3.53125 L -5.625 -3.53125 L -5.1875 -3.96875 L -5.1875 -7.234375 L -3.625 -8.9375 L -1.5625 -8.9375 L 0 -7.25 Z M 0 -1.078125 "/></g></g></g><g fill="#000000" fill-opacity="1"><g transform="translate(745.51361, 254.967235)"><g><path d="M 0 -2.765625 L -1.546875 -1.09375 L -6.5 -1.09375 L -6.5 -0.484375 L -8.359375 -0.484375 L -8.359375 -1.203125 L -10.734375 -2.109375 L -10.734375 -4.078125 L -8.359375 -4.078125 L -8.359375 -5.390625 L -6.5 -5.390625 L -6.5 -4.078125 L -2.34375 -4.078125 L -1.90625 -4.515625 L -1.90625 -5.734375 L 0 -5.734375 Z M 0 -2.765625 "/></g></g></g><g fill="#000000" fill-opacity="1"><g transform="translate(745.51361, 248.84071)"><g><path d="M 0 -2.578125 L -1.78125 -0.796875 L -6.578125 -0.796875 L -8.359375 -2.578125 L -8.359375 -7.28125 L -6.578125 -9.0625 L -3.40625 -9.0625 L -3.40625 -3.796875 L -2.671875 -3.796875 L -2.109375 -4.375 L -2.109375 -8.921875 L 0 -8.921875 Z M -5.140625 -3.796875 L -5.140625 -6.34375 L -6.125 -6.34375 L -6.6875 -5.765625 L -6.6875 -4.375 L -6.125 -3.796875 Z M -5.140625 -3.796875 "/></g></g></g><g fill="#000000" fill-opacity="1"><g transform="translate(745.51361, 238.907102)"><g><path d="M 0 -1.046875 L -8.375 -1.046875 L -8.375 -4.03125 L -7.21875 -4.03125 L -8.375 -5.4375 L -8.375 -8.3125 L -7.03125 -9.640625 L -8.375 -11.296875 L -8.375 -14.171875 L -6.578125 -15.953125 L 0 -15.953125 L 0 -12.953125 L -6.15625 -12.953125 L -6.671875 -12.421875 L -6.671875 -11.546875 L -5.4375 -10.09375 L 0 -10.09375 L 0 -7.109375 L -6.15625 -7.109375 L -6.671875 -6.5625 L -6.671875 -5.703125 L -5.265625 -4.03125 L 0 -4.03125 Z M 0 -1.046875 "/></g></g></g><g fill="#000000" fill-opacity="1"><g transform="translate(869.68833, 437.311449)"><g><path d="M 0 -0.640625 L -2.25 -0.640625 L -2.25 -1.953125 L -9.53125 -1.921875 L -9.53125 -0.640625 L -11.796875 -0.640625 L -11.796875 -6.078125 L -9.53125 -6.078125 L -9.53125 -4.78125 L -2.25 -4.75 L -2.25 -6.078125 L 0 -6.078125 Z M 0 -0.640625 "/></g></g></g><g fill="#000000" fill-opacity="1"><g transform="translate(869.68833, 430.593059)"><g><path d="M 0 -1.046875 L -8.375 -1.046875 L -8.375 -4.03125 L -7.21875 -4.03125 L -8.375 -5.4375 L -8.375 -8.3125 L -6.578125 -10.09375 L 0 -10.09375 L 0 -7.109375 L -6.15625 -7.109375 L -6.671875 -6.5625 L -6.671875 -5.703125 L -5.265625 -4.03125 L 0 -4.03125 Z M 0 -1.046875 "/></g></g></g><g fill="#000000" fill-opacity="1"><g transform="translate(869.68833, 419.619698)"><g><path d="M 0 -2.578125 L -1.78125 -0.796875 L -6.578125 -0.796875 L -8.375 -2.578125 L -8.375 -5.578125 L -7.34375 -6.78125 L -11.796875 -6.78125 L -11.796875 -9.78125 L 0 -9.78125 L 0 -6.78125 L -1.015625 -6.78125 L 0 -5.5625 Z M -1.71875 -4.09375 L -1.71875 -5.359375 L -2.9375 -6.78125 L -5.421875 -6.78125 L -6.65625 -5.375 L -6.65625 -4.09375 L -6.21875 -3.71875 L -2.109375 -3.71875 Z M -1.71875 -4.09375 "/></g></g></g><g fill="#000000" fill-opacity="1"><g transform="translate(869.68833, 408.806291)"><g><path d="M 0.015625 -2.65625 L -1.765625 -0.875 L -8.359375 -0.875 L -8.359375 -3.875 L -2.234375 -3.875 L -1.6875 -4.4375 L -1.6875 -5.09375 L -3.0625 -6.703125 L -8.359375 -6.703125 L -8.359375 -9.703125 L 0 -9.703125 L 0 -6.703125 L -1.125 -6.703125 L 0.015625 -5.3125 Z M 0.015625 -2.65625 "/></g></g></g><g fill="#000000" fill-opacity="1"><g transform="translate(869.68833, 398.072867)"><g><path d="M 0 -1.078125 L -2.0625 -1.078125 L -2.0625 -5.5625 L -2.5 -6.015625 L -2.828125 -6.015625 L -3.28125 -5.5625 L -3.28125 -2.359375 L -4.828125 -0.640625 L -6.796875 -0.640625 L -8.359375 -2.34375 L -8.359375 -8.125 L -6.296875 -8.125 L -6.296875 -3.9375 L -5.859375 -3.53125 L -5.625 -3.53125 L -5.1875 -3.96875 L -5.1875 -7.234375 L -3.625 -8.9375 L -1.5625 -8.9375 L 0 -7.25 Z M 0 -1.078125 "/></g></g></g><g fill="#000000" fill-opacity="1"><g transform="translate(869.68833, 388.491165)"><g><path d="M 0 -2.765625 L -1.546875 -1.09375 L -6.5 -1.09375 L -6.5 -0.484375 L -8.359375 -0.484375 L -8.359375 -1.203125 L -10.734375 -2.109375 L -10.734375 -4.078125 L -8.359375 -4.078125 L -8.359375 -5.390625 L -6.5 -5.390625 L -6.5 -4.078125 L -2.34375 -4.078125 L -1.90625 -4.515625 L -1.90625 -5.734375 L 0 -5.734375 Z M 0 -2.765625 "/></g></g></g><g fill="#000000" fill-opacity="1"><g transform="translate(869.68833, 382.36464)"><g><path d="M 0 -1.046875 L -8.375 -1.046875 L -8.375 -4.03125 L -7.0625 -4.03125 L -8.359375 -5.453125 L -8.359375 -7.09375 L -5.6875 -7.09375 L -5.6875 -4.6875 L -5.09375 -4.03125 L 0 -4.03125 Z M 0 -1.046875 "/></g></g></g><g fill="#000000" fill-opacity="1"><g transform="translate(869.68833, 375.118379)"><g><path d="M -9.28125 -1.046875 L -11.515625 -1.046875 L -11.515625 -4.03125 L -9.28125 -4.03125 Z M 0 -1.046875 L -8.375 -1.046875 L -8.375 -4.03125 L 0 -4.03125 Z M 0 -1.046875 "/></g></g></g><g fill="#000000" fill-opacity="1"><g transform="translate(869.68833, 370.047594)"><g><path d="M 0 -2.25 L -1.78125 -0.484375 L -3.546875 -0.484375 L -5.328125 -2.25 L -5.328125 -6.234375 L -5.890625 -6.234375 L -6.46875 -5.65625 L -6.46875 -1.46875 L -8.359375 -1.46875 L -8.359375 -7.4375 L -6.578125 -9.234375 L 0 -9.234375 L 0 -6.234375 L -1.140625 -6.234375 L 0 -5.140625 Z M -1.625 -4.015625 L -1.625 -4.875 L -2.984375 -6.234375 L -3.84375 -6.234375 L -3.84375 -4.015625 L -3.28125 -3.453125 L -2.1875 -3.453125 Z M -1.625 -4.015625 "/></g></g></g><g fill="#000000" fill-opacity="1"><g transform="translate(869.68833, 359.938022)"><g><path d="M 0 -1.046875 L -11.796875 -1.046875 L -11.796875 -4.03125 L 0 -4.03125 Z M 0 -1.046875 "/></g></g></g><g fill="#000000" fill-opacity="1"><g transform="translate(869.68833, 354.867237)"><g/></g></g><g fill="#000000" fill-opacity="1"><g transform="translate(869.68833, 350.932187)"><g><path d="M 0 -1.125 L -11.796875 -1.125 L -11.796875 -4.109375 L -7.40625 -4.109375 L -7.40625 -8.125 L -11.796875 -8.125 L -11.796875 -11.125 L 0 -11.125 L 0 -8.125 L -5.078125 -8.125 L -5.078125 -4.109375 L 0 -4.109375 Z M 0 -1.125 "/></g></g></g><g fill="#000000" fill-opacity="1"><g transform="translate(869.68833, 338.695124)"><g><path d="M 0.015625 -2.65625 L -1.765625 -0.875 L -8.359375 -0.875 L -8.359375 -3.875 L -2.234375 -3.875 L -1.6875 -4.4375 L -1.6875 -5.09375 L -3.0625 -6.703125 L -8.359375 -6.703125 L -8.359375 -9.703125 L 0 -9.703125 L 0 -6.703125 L -1.125 -6.703125 L 0.015625 -5.3125 Z M 0.015625 -2.65625 "/></g></g></g><g fill="#000000" fill-opacity="1"><g transform="translate(869.68833, 327.9617)"><g><path d="M 0 -1.046875 L -8.375 -1.046875 L -8.375 -4.03125 L -7.21875 -4.03125 L -8.375 -5.4375 L -8.375 -8.3125 L -7.03125 -9.640625 L -8.375 -11.296875 L -8.375 -14.171875 L -6.578125 -15.953125 L 0 -15.953125 L 0 -12.953125 L -6.15625 -12.953125 L -6.671875 -12.421875 L -6.671875 -11.546875 L -5.4375 -10.09375 L 0 -10.09375 L 0 -7.109375 L -6.15625 -7.109375 L -6.671875 -6.5625 L -6.671875 -5.703125 L -5.265625 -4.03125 L 0 -4.03125 Z M 0 -1.046875 "/></g></g></g><g fill="#000000" fill-opacity="1"><g transform="translate(869.68833, 311.133749)"><g><path d="M 0 -2.25 L -1.78125 -0.484375 L -3.546875 -0.484375 L -5.328125 -2.25 L -5.328125 -6.234375 L -5.890625 -6.234375 L -6.46875 -5.65625 L -6.46875 -1.46875 L -8.359375 -1.46875 L -8.359375 -7.4375 L -6.578125 -9.234375 L 0 -9.234375 L 0 -6.234375 L -1.140625 -6.234375 L 0 -5.140625 Z M -1.625 -4.015625 L -1.625 -4.875 L -2.984375 -6.234375 L -3.84375 -6.234375 L -3.84375 -4.015625 L -3.28125 -3.453125 L -2.1875 -3.453125 Z M -1.625 -4.015625 "/></g></g></g><g fill="#000000" fill-opacity="1"><g transform="translate(869.68833, 301.024177)"><g><path d="M 0 -1.046875 L -8.375 -1.046875 L -8.375 -4.03125 L -7.21875 -4.03125 L -8.375 -5.4375 L -8.375 -8.3125 L -6.578125 -10.09375 L 0 -10.09375 L 0 -7.109375 L -6.15625 -7.109375 L -6.671875 -6.5625 L -6.671875 -5.703125 L -5.265625 -4.03125 L 0 -4.03125 Z M 0 -1.046875 "/></g></g></g><g fill="#000000" fill-opacity="1"><g transform="translate(869.68833, 290.050816)"><g/></g></g><g fill="#000000" fill-opacity="1"><g transform="translate(869.68833, 286.115765)"><g><path d="M 0 -1.1875 L -2.40625 -1.1875 L -2.40625 -7.328125 L -2.953125 -7.890625 L -4.265625 -7.890625 L -4.828125 -7.328125 L -4.828125 -2.5 L -6.625 -0.71875 L -10.015625 -0.71875 L -11.796875 -2.5 L -11.796875 -10.203125 L -9.390625 -10.203125 L -9.390625 -4.21875 L -8.828125 -3.65625 L -7.796875 -3.65625 L -7.234375 -4.21875 L -7.234375 -9.0625 L -5.453125 -10.828125 L -1.78125 -10.828125 L 0 -9.0625 Z M 0 -1.1875 "/></g></g></g><g fill="#000000" fill-opacity="1"><g transform="translate(869.68833, 274.566538)"><g><path d="M 0 -2.25 L -1.78125 -0.484375 L -3.546875 -0.484375 L -5.328125 -2.25 L -5.328125 -6.234375 L -5.890625 -6.234375 L -6.46875 -5.65625 L -6.46875 -1.46875 L -8.359375 -1.46875 L -8.359375 -7.4375 L -6.578125 -9.234375 L 0 -9.234375 L 0 -6.234375 L -1.140625 -6.234375 L 0 -5.140625 Z M -1.625 -4.015625 L -1.625 -4.875 L -2.984375 -6.234375 L -3.84375 -6.234375 L -3.84375 -4.015625 L -3.28125 -3.453125 L -2.1875 -3.453125 Z M -1.625 -4.015625 "/></g></g></g><g fill="#000000" fill-opacity="1"><g transform="translate(869.68833, 264.456966)"><g><path d="M 0 -1.03125 L -6.5 -1.03125 L -6.5 -0.359375 L -8.359375 -0.359375 L -8.359375 -1.03125 L -10.21875 -1.03125 L -11.796875 -2.71875 L -11.796875 -5.875 L -10.046875 -5.875 L -10.046875 -4.46875 L -9.609375 -4.015625 L -8.359375 -4.015625 L -8.359375 -5.484375 L -6.5 -5.484375 L -6.5 -4.015625 L 0 -4.015625 Z M 0 -1.03125 "/></g></g></g><g fill="#000000" fill-opacity="1"><g transform="translate(869.68833, 258.586376)"><g><path d="M 0 -2.578125 L -1.78125 -0.796875 L -6.578125 -0.796875 L -8.359375 -2.578125 L -8.359375 -7.28125 L -6.578125 -9.0625 L -3.40625 -9.0625 L -3.40625 -3.796875 L -2.671875 -3.796875 L -2.109375 -4.375 L -2.109375 -8.921875 L 0 -8.921875 Z M -5.140625 -3.796875 L -5.140625 -6.34375 L -6.125 -6.34375 L -6.6875 -5.765625 L -6.6875 -4.375 L -6.125 -3.796875 Z M -5.140625 -3.796875 "/></g></g></g><g fill="#000000" fill-opacity="1"><g transform="translate(869.68833, 248.652768)"><g><path d="M 0 -2.765625 L -1.546875 -1.09375 L -6.5 -1.09375 L -6.5 -0.484375 L -8.359375 -0.484375 L -8.359375 -1.203125 L -10.734375 -2.109375 L -10.734375 -4.078125 L -8.359375 -4.078125 L -8.359375 -5.390625 L -6.5 -5.390625 L -6.5 -4.078125 L -2.34375 -4.078125 L -1.90625 -4.515625 L -1.90625 -5.734375 L 0 -5.734375 Z M 0 -2.765625 "/></g></g></g><g fill="#000000" fill-opacity="1"><g transform="translate(869.68833, 242.526255)"><g><path d="M 2.984375 -1.546875 L 0.953125 -1.546875 L 0.953125 -6.28125 L 0.40625 -6.84375 L -1.25 -6.84375 L 0 -5.3125 L 0 -2.65625 L -1.78125 -0.875 L -8.359375 -0.875 L -8.359375 -3.875 L -2.25 -3.875 L -1.703125 -4.4375 L -1.703125 -5.09375 L -3.203125 -6.84375 L -8.359375 -6.84375 L -8.359375 -9.65625 L 1.1875 -9.65625 L 2.984375 -7.875 Z M 2.984375 -1.546875 "/></g></g></g><g fill="#000000" fill-opacity="1"><g transform="translate(459.722813, 530.443032)"><g><path d="M 2.75 0 L 2.75 -29.015625 L 22.171875 -29.015625 L 26.53125 -24.65625 L 26.53125 -13.46875 L 22.171875 -9.09375 L 10.125 -9.09375 L 10.125 0 Z M 10.125 -14.6875 L 18.03125 -14.6875 L 19.40625 -16.0625 L 19.40625 -22.046875 L 18.03125 -23.421875 L 10.125 -23.421875 Z M 10.125 -14.6875 "/></g></g></g><g fill="#000000" fill-opacity="1"><g transform="translate(486.852185, 530.443032)"><g><path d="M 2.75 0 L 2.75 -29.015625 L 10.125 -29.015625 L 10.125 -5.984375 L 23.421875 -5.984375 L 23.421875 0 Z M 2.75 0 "/></g></g></g><g fill="#000000" fill-opacity="1"><g transform="translate(510.870939, 530.443032)"><g><path d="M 6.34375 0 L 1.96875 -4.375 L 1.96875 -24.65625 L 6.34375 -29.015625 L 21.265625 -29.015625 L 25.671875 -24.65625 L 25.671875 -18.78125 L 18.5 -18.78125 L 18.5 -22.046875 L 17.09375 -23.421875 L 10.75 -23.421875 L 9.328125 -22.046875 L 9.328125 -6.96875 L 10.75 -5.59375 L 17.328125 -5.59375 L 18.78125 -6.96875 L 18.78125 -10.28125 L 25.90625 -10.28125 L 25.90625 -4.375 L 21.53125 0 Z M 6.34375 0 "/></g></g></g></svg>